<?xml version="1.0" encoding="UTF-8"?>
<svg id="Layer_2" data-name="Layer 2" xmlns="http://www.w3.org/2000/svg" viewBox="0 0 471.65 129.73">
  <defs>
    <style>
      .cls-1 {
        fill: #9a84d4;
      }

      .cls-1, .cls-2, .cls-3, .cls-4, .cls-5, .cls-6, .cls-7, .cls-8 {
        stroke-width: 0px;
      }

      .cls-2 {
        fill: #443c5c;
      }

      .cls-3 {
        fill: #574772;
      }

      .cls-4 {
        fill: #bddb75;
      }

      .cls-5 {
        fill: #85bf6a;
      }

      .cls-6 {
        fill: #fc3740;
      }

      .cls-7 {
        fill: #ff747b;
      }

      .cls-8 {
        fill: #ffad9f;
      }
    </style>
  </defs>
  <g id="Fruits">
    <g>
      <g>
        <path class="cls-6" d="M200.92,51.04c0,15.09-15.52,27.33-30.62,27.33s-30.62-12.24-30.62-27.33S155.2,0,170.3,0s30.62,35.94,30.62,51.04Z"/>
        <path class="cls-7" d="M170.3,5.24c4.42,0,10.84,6.7,16.34,17.07,5.24,9.87,9.04,21.95,9.04,28.72,0,12.44-13.64,22.09-25.38,22.09s-25.38-9.65-25.38-22.09c0-6.77,3.8-18.85,9.04-28.72,5.5-10.37,11.92-17.07,16.34-17.07Z"/>
        <path class="cls-8" d="M158.28,51.71c0-16.83,5.38-42.33,12.01-42.33s12.01,25.5,12.01,42.33-5.38,18.61-12.01,18.61-12.01-1.78-12.01-18.61Z"/>
        <path class="cls-7" d="M163.6,50.84c0-11.94,3-30.05,6.7-30.05s6.7,18.1,6.7,30.05-3,13.21-6.7,13.21-6.7-1.26-6.7-13.21Z"/>
      </g>
      <g>
        <path class="cls-6" d="M331.83,51.04c0,15.09-15.52,27.33-30.62,27.33s-30.62-12.24-30.62-27.33S286.12,0,301.21,0s30.62,35.94,30.62,51.04Z"/>
        <path class="cls-7" d="M301.21,5.24c4.42,0,10.84,6.7,16.34,17.07,5.24,9.87,9.04,21.95,9.04,28.72,0,12.44-13.64,22.09-25.38,22.09s-25.38-9.65-25.38-22.09c0-6.77,3.8-18.85,9.04-28.72,5.5-10.37,11.92-17.07,16.34-17.07Z"/>
        <path class="cls-8" d="M289.2,51.71c0-16.83,5.38-42.33,12.01-42.33s12.01,25.5,12.01,42.33-5.38,18.61-12.01,18.61-12.01-1.78-12.01-18.61Z"/>
        <path class="cls-7" d="M294.52,50.84c0-11.94,3-30.05,6.7-30.05s6.7,18.1,6.7,30.05-3,13.21-6.7,13.21-6.7-1.26-6.7-13.21Z"/>
      </g>
      <g>
        <path class="cls-5" d="M326.54,5.65s-77.52-4.51-81.99,81.22c0,0,84.25-3.22,81.99-81.22Z"/>
        <path class="cls-4" d="M244.55,86.86L326.54,5.65s-77.52-4.51-81.99,81.22Z"/>
      </g>
      <g>
        <path class="cls-5" d="M146.19,5.65s77.52-4.51,81.99,81.22c0,0-84.25-3.22-81.99-81.22Z"/>
        <path class="cls-4" d="M228.19,86.86L146.19,5.65s77.52-4.51,81.99,81.22Z"/>
      </g>
      <g>
        <path class="cls-6" d="M266.37,91.54c0,15.09-15.52,27.33-30.62,27.33s-30.62-12.24-30.62-27.33,15.52-51.04,30.62-51.04,30.62,35.94,30.62,51.04Z"/>
        <path class="cls-7" d="M235.75,45.74c4.42,0,10.84,6.7,16.34,17.07,5.24,9.87,9.04,21.95,9.04,28.72,0,12.44-13.64,22.09-25.38,22.09s-25.38-9.65-25.38-22.09c0-6.77,3.8-18.85,9.04-28.72,5.5-10.37,11.92-17.07,16.34-17.07Z"/>
        <path class="cls-8" d="M223.74,92.22c0-16.83,5.38-42.33,12.01-42.33s12.01,25.5,12.01,42.33-5.38,18.61-12.01,18.61-12.01-1.78-12.01-18.61Z"/>
        <path class="cls-7" d="M229.06,91.34c0-11.94,3-30.05,6.7-30.05s6.7,18.1,6.7,30.05-3,13.21-6.7,13.21-6.7-1.26-6.7-13.21Z"/>
      </g>
      <g>
        <path class="cls-6" d="M122.54,62.72c0,15.1-15.52,27.33-30.62,27.33s-30.62-12.24-30.62-27.33,15.52-51.04,30.62-51.04,30.62,35.94,30.62,51.04Z"/>
        <path class="cls-7" d="M91.92,16.92c4.42,0,10.84,6.7,16.34,17.07,5.24,9.87,9.04,21.95,9.04,28.72,0,12.44-13.64,22.09-25.38,22.09s-25.38-9.65-25.38-22.09c0-6.77,3.8-18.85,9.04-28.72,5.5-10.37,11.92-17.07,16.34-17.07Z"/>
        <path class="cls-8" d="M79.9,63.4c0-16.83,5.38-42.33,12.01-42.33s12.01,25.5,12.01,42.33-5.38,18.61-12.01,18.61-12.01-1.78-12.01-18.61Z"/>
        <path class="cls-7" d="M85.22,62.52c0-11.95,3-30.05,6.7-30.05s6.7,18.1,6.7,30.05-3,13.21-6.7,13.21-6.7-1.26-6.7-13.21Z"/>
      </g>
      <g>
        <path class="cls-6" d="M410.86,62.72c0,15.1-15.52,27.33-30.62,27.33s-30.62-12.24-30.62-27.33,15.52-51.04,30.62-51.04,30.62,35.94,30.62,51.04Z"/>
        <path class="cls-7" d="M380.24,16.92c4.42,0,10.84,6.7,16.34,17.07,5.24,9.87,9.04,21.95,9.04,28.72,0,12.44-13.64,22.09-25.38,22.09s-25.38-9.65-25.38-22.09c0-6.77,3.8-18.85,9.04-28.72,5.5-10.37,11.92-17.07,16.34-17.07Z"/>
        <path class="cls-8" d="M368.22,63.4c0-16.83,5.38-42.33,12.01-42.33s12.01,25.5,12.01,42.33-5.38,18.61-12.01,18.61-12.01-1.78-12.01-18.61Z"/>
        <path class="cls-7" d="M373.54,62.52c0-11.95,3-30.05,6.7-30.05s6.7,18.1,6.7,30.05-3,13.21-6.7,13.21-6.7-1.26-6.7-13.21Z"/>
      </g>
      <g>
        <path class="cls-5" d="M440.46,38.36s-74.02-23.45-99.46,58.54c0,0,82.46,17.61,99.46-58.54Z"/>
        <path class="cls-4" d="M341,96.9l99.46-58.54s-74.02-23.45-99.46,58.54Z"/>
      </g>
      <g>
        <path class="cls-5" d="M30.17,38.36s74.02-23.45,99.46,58.54c0,0-82.46,17.61-99.46-58.54Z"/>
        <path class="cls-4" d="M129.63,96.9L30.17,38.36s74.02-23.45,99.46,58.54Z"/>
      </g>
      <g>
        <path class="cls-6" d="M60.23,87.15c7.24,13.25-.52,31.43-13.76,38.67-13.25,7.24-32.74,3.94-39.98-9.3-7.24-13.25-10.85-52.23,2.39-59.47,13.25-7.24,44.11,16.86,51.34,30.11Z"/>
        <path class="cls-7" d="M11.4,61.64c3.88-2.12,12.72.68,22.53,7.15,9.33,6.15,18.46,14.93,21.7,20.87,5.97,10.92-1.38,25.93-11.68,31.55-10.3,5.63-26.9,3.7-32.86-7.22-3.25-5.94-5.71-18.37-5.84-29.54-.14-11.74,2.27-20.7,6.15-22.82Z"/>
        <path class="cls-8" d="M23.14,108.19c-8.07-14.77-15.58-39.73-9.76-42.91,5.82-3.18,22.77,16.62,30.84,31.39,8.07,14.77,4.2,18.91-1.62,22.09-5.82,3.18-11.4,4.2-19.47-10.57Z"/>
        <path class="cls-7" d="M27.39,104.86c-5.73-10.48-11.78-27.81-8.53-29.58s14.56,12.67,20.29,23.16c5.73,10.48,3.7,13.03.46,14.8-3.25,1.77-6.48,2.1-12.21-8.38Z"/>
      </g>
      <g>
        <path class="cls-6" d="M466.58,115.52c-6.62,13.56-25.94,17.75-39.51,11.12-13.56-6.63-22.14-24.43-15.52-38,6.62-13.56,36.35-39.05,49.91-32.42,13.56,6.62,11.74,45.74,5.11,59.3Z"/>
        <path class="cls-7" d="M459.17,60.93c3.98,1.94,6.8,10.78,7.19,22.51.37,11.17-1.51,23.69-4.49,29.78-5.46,11.18-21.95,13.86-32.5,8.71-10.55-5.15-18.57-19.81-13.11-30.99,2.97-6.08,11.69-15.27,20.73-21.84,9.5-6.9,18.2-10.11,22.18-8.17Z"/>
        <path class="cls-8" d="M427.98,97.41c7.39-15.12,23.41-35.68,29.37-32.76,5.96,2.91-.4,28.19-7.78,43.31-7.39,15.12-13,14.36-18.96,11.45-5.96-2.91-10.01-6.87-2.63-21.99Z"/>
        <path class="cls-7" d="M433.14,98.96c5.24-10.73,15.88-25.68,19.2-24.06,3.32,1.62-1.93,19.2-7.17,29.94-5.24,10.73-8.49,10.55-11.81,8.93-3.32-1.62-5.46-4.07-.22-14.81Z"/>
      </g>
      <g>
        <path class="cls-3" d="M325.36,79.66c-2.27,16.56-17.53,28.14-34.09,25.87-16.56-2.27-28.14-17.53-25.87-34.09,2.27-16.56,17.53-28.14,34.09-25.87,16.56,2.27,28.14,17.53,25.87,34.09Z"/>
        <path class="cls-1" d="M308.43,62.37c-.52,3.82-5.89,6.25-11.99,5.41-6.1-.84-10.62-4.61-10.09-8.44.52-3.82,5.89-6.25,11.99-5.41,6.1.84,10.62,4.61,10.09,8.44Z"/>
        <path class="cls-2" d="M320.74,59.1c.65,2.81.83,5.78.42,8.81-1.84,13.41-14.2,22.79-27.61,20.95-13.41-1.84-22.79-14.2-20.95-27.61.42-3.03,1.39-5.84,2.77-8.38-5.25,4.63-8.95,11.08-9.98,18.56-2.27,16.56,9.31,31.82,25.87,34.09,16.56,2.27,31.82-9.31,34.09-25.87,1.03-7.48-.8-14.69-4.61-20.56Z"/>
      </g>
      <g>
        <path class="cls-3" d="M208.22,79.66c-2.27,16.56-17.53,28.14-34.09,25.87-16.56-2.27-28.14-17.53-25.87-34.09,2.27-16.56,17.53-28.14,34.09-25.87,16.56,2.27,28.14,17.53,25.87,34.09Z"/>
        <path class="cls-1" d="M191.3,62.37c-.52,3.82-5.89,6.25-11.99,5.41-6.1-.84-10.62-4.61-10.09-8.44.52-3.82,5.89-6.25,11.99-5.41,6.1.84,10.61,4.61,10.09,8.44Z"/>
        <path class="cls-2" d="M203.61,59.1c.65,2.81.83,5.78.42,8.81-1.84,13.41-14.2,22.79-27.61,20.95-13.41-1.84-22.79-14.2-20.95-27.61.42-3.03,1.39-5.84,2.77-8.38-5.25,4.63-8.95,11.08-9.98,18.56-2.27,16.56,9.31,31.82,25.87,34.09,16.56,2.27,31.82-9.31,34.09-25.87,1.03-7.48-.8-14.69-4.61-20.56Z"/>
      </g>
      <g>
        <path class="cls-3" d="M101.12,101.33c-2.27,16.56-17.53,28.14-34.09,25.87-16.56-2.27-28.14-17.53-25.87-34.09,2.27-16.56,17.53-28.14,34.09-25.87,16.56,2.27,28.14,17.53,25.87,34.09Z"/>
        <path class="cls-1" d="M84.19,84.03c-.52,3.82-5.89,6.24-11.99,5.41-6.1-.84-10.61-4.61-10.09-8.44s5.89-6.24,11.99-5.41c6.1.84,10.62,4.61,10.09,8.44Z"/>
        <path class="cls-2" d="M96.5,80.77c.65,2.81.83,5.78.42,8.81-1.84,13.41-14.2,22.79-27.61,20.95-13.41-1.84-22.79-14.2-20.95-27.61.42-3.03,1.39-5.84,2.77-8.38-5.25,4.63-8.95,11.08-9.98,18.56-2.27,16.56,9.31,31.82,25.87,34.09,16.56,2.27,31.82-9.31,34.09-25.87,1.03-7.48-.8-14.69-4.61-20.56Z"/>
      </g>
      <g>
        <path class="cls-3" d="M424.97,101.33c-2.27,16.56-17.53,28.14-34.09,25.87-16.56-2.27-28.14-17.53-25.87-34.09,2.27-16.56,17.53-28.14,34.09-25.87,16.56,2.27,28.14,17.53,25.87,34.09Z"/>
        <path class="cls-1" d="M408.05,84.03c-.52,3.82-5.89,6.24-11.99,5.41-6.1-.84-10.62-4.61-10.09-8.44s5.89-6.24,11.99-5.41c6.1.84,10.62,4.61,10.09,8.44Z"/>
        <path class="cls-2" d="M420.36,80.77c.65,2.81.83,5.78.42,8.81-1.84,13.41-14.2,22.79-27.61,20.95-13.41-1.84-22.79-14.2-20.95-27.61.42-3.03,1.39-5.84,2.77-8.38-5.25,4.63-8.95,11.08-9.98,18.56-2.27,16.56,9.31,31.82,25.87,34.09,16.56,2.27,31.82-9.31,34.09-25.87,1.03-7.48-.8-14.69-4.61-20.56Z"/>
      </g>
    </g>
  </g>
</svg>