<?xml version="1.0" encoding="UTF-8"?>
<svg id="Layer_2" data-name="Layer 2" xmlns="http://www.w3.org/2000/svg" viewBox="0 0 144.51 147.21">
  <defs>
    <style>
      .cls-1 {
        fill: #9a84d4;
      }

      .cls-1, .cls-2, .cls-3, .cls-4, .cls-5, .cls-6, .cls-7, .cls-8 {
        stroke-width: 0px;
      }

      .cls-2 {
        fill: #443c5c;
      }

      .cls-3 {
        fill: #574772;
      }

      .cls-4 {
        fill: #bddb75;
      }

      .cls-5 {
        fill: #85bf6a;
      }

      .cls-6 {
        fill: #fc3740;
      }

      .cls-7 {
        fill: #ff747b;
      }

      .cls-8 {
        fill: #ffad9f;
      }
    </style>
  </defs>
  <g id="Layer_7" data-name="Layer 7">
    <g>
      <g>
        <path class="cls-6" d="M134.84,48.28c0,14.28-14.68,25.85-28.96,25.85s-28.96-11.57-28.96-25.85S91.6,0,105.88,0s28.96,34,28.96,48.28Z"/>
        <path class="cls-7" d="M105.88,4.96c4.18,0,10.25,6.34,15.46,16.15,4.95,9.34,8.55,20.76,8.55,27.17,0,11.77-12.9,20.9-24,20.9s-24-9.13-24-20.9c0-6.4,3.59-17.83,8.55-27.17,5.21-9.81,11.27-16.15,15.46-16.15Z"/>
        <path class="cls-8" d="M94.51,48.92c0-15.92,5.09-40.04,11.36-40.04s11.36,24.12,11.36,40.04-5.09,17.6-11.36,17.6-11.36-1.68-11.36-17.6Z"/>
        <path class="cls-7" d="M99.54,48.08c0-11.3,2.84-28.42,6.33-28.42s6.33,17.12,6.33,28.42-2.84,12.49-6.33,12.49-6.33-1.2-6.33-12.49Z"/>
      </g>
      <g>
        <path class="cls-5" d="M23.89,5.21s-13.54,72.19,66.36,86.67c0,0,7.09-79.44-66.36-86.67Z"/>
        <path class="cls-4" d="M90.26,91.88L23.89,5.21s-13.54,72.19,66.36,86.67Z"/>
      </g>
      <g>
        <path class="cls-6" d="M57.92,86.59c0,14.28-14.68,25.85-28.96,25.85S0,100.86,0,86.59s14.68-48.28,28.96-48.28,28.96,34,28.96,48.28Z"/>
        <path class="cls-7" d="M28.96,43.27c4.18,0,10.25,6.34,15.46,16.15,4.95,9.34,8.55,20.76,8.55,27.17,0,11.77-12.9,20.9-24,20.9s-24-9.13-24-20.9c0-6.4,3.59-17.83,8.55-27.17,5.21-9.81,11.27-16.15,15.46-16.15Z"/>
        <path class="cls-8" d="M17.6,87.23c0-15.92,5.09-40.04,11.36-40.04s11.36,24.12,11.36,40.04-5.09,17.6-11.36,17.6-11.36-1.68-11.36-17.6Z"/>
        <path class="cls-7" d="M22.63,86.39c0-11.3,2.84-28.42,6.33-28.42s6.33,17.12,6.33,28.42-2.84,12.49-6.33,12.49-6.33-1.2-6.33-12.49Z"/>
      </g>
      <g>
        <path class="cls-3" d="M113.71,75.35c-2.15,15.66-16.58,26.61-32.24,24.47-15.66-2.15-26.61-16.58-24.47-32.24,2.15-15.66,16.58-26.61,32.24-24.47,15.66,2.15,26.61,16.58,24.47,32.24Z"/>
        <path class="cls-1" d="M97.71,58.99c-.5,3.62-5.57,5.91-11.34,5.12-5.77-.79-10.04-4.36-9.55-7.98.5-3.62,5.57-5.91,11.34-5.12,5.77.79,10.04,4.36,9.55,7.98Z"/>
        <path class="cls-2" d="M109.35,55.9c.61,2.66.79,5.47.39,8.34-1.74,12.68-13.43,21.56-26.11,19.82-12.68-1.74-21.55-13.43-19.82-26.11.39-2.87,1.32-5.52,2.62-7.92-4.97,4.38-8.47,10.48-9.44,17.56-2.15,15.66,8.81,30.1,24.47,32.24,15.66,2.15,30.1-8.81,32.24-24.47.97-7.08-.76-13.89-4.36-19.45Z"/>
      </g>
      <g>
        <path class="cls-3" d="M66.32,122.48c-2.15,15.66-16.58,26.61-32.24,24.47-15.66-2.15-26.61-16.58-24.47-32.24,2.15-15.66,16.58-26.61,32.24-24.47,15.66,2.15,26.61,16.58,24.47,32.24Z"/>
        <path class="cls-1" d="M50.31,106.12c-.5,3.62-5.57,5.91-11.34,5.12-5.77-.79-10.04-4.36-9.55-7.98.5-3.62,5.57-5.91,11.34-5.12,5.77.79,10.04,4.36,9.54,7.98Z"/>
        <path class="cls-2" d="M61.95,103.03c.61,2.66.79,5.47.39,8.34-1.74,12.68-13.43,21.55-26.11,19.82-12.68-1.74-21.55-13.43-19.82-26.11.39-2.87,1.32-5.52,2.62-7.92-4.97,4.38-8.47,10.48-9.44,17.56-2.15,15.66,8.81,30.1,24.47,32.24,15.66,2.15,30.1-8.81,32.24-24.47.97-7.08-.75-13.89-4.36-19.45Z"/>
      </g>
      <g>
        <path class="cls-6" d="M139.1,131.25c-6.54,12.69-24.9,16.25-37.59,9.7-12.69-6.54-20.43-23.56-13.89-36.25,6.54-12.69,35.18-36.18,47.87-29.63,12.69,6.54,10.16,43.49,3.61,56.18Z"/>
        <path class="cls-7" d="M133.22,79.47c3.72,1.92,6.2,10.33,6.33,21.44.12,10.57-1.92,22.37-4.86,28.07-5.39,10.46-21.04,12.66-30.91,7.57-9.87-5.09-17.15-19.11-11.76-29.57,2.94-5.69,11.37-14.2,20.05-20.23,9.12-6.33,17.42-9.19,21.14-7.27Z"/>
        <path class="cls-8" d="M102.97,113.33c7.3-14.15,22.87-33.25,28.45-30.38,5.58,2.88-.96,26.65-8.25,40.79-7.3,14.15-12.59,13.31-18.17,10.43-5.58-2.88-9.33-6.71-2.03-20.85Z"/>
        <path class="cls-7" d="M107.82,114.9c5.18-10.04,15.55-23.96,18.66-22.36,3.11,1.6-2.22,18.12-7.4,28.16-5.18,10.04-8.25,9.8-11.36,8.2-3.11-1.6-5.08-3.97.1-14.01Z"/>
      </g>
    </g>
  </g>
</svg>