<?xml version="1.0" encoding="UTF-8"?>
<svg xmlns="http://www.w3.org/2000/svg" xmlns:xlink="http://www.w3.org/1999/xlink" viewBox="0 0 319.26 282.41">
  <defs>
    <style>
      .cls-1 {
        fill: #ffa631;
        opacity: .55;
      }

      .cls-1, .cls-2, .cls-3, .cls-4, .cls-5, .cls-6, .cls-7, .cls-8, .cls-9 {
        stroke-width: 0px;
      }

      .cls-2 {
        fill: url(#radial-gradient);
      }

      .cls-2, .cls-5, .cls-8 {
        opacity: .75;
      }

      .cls-3 {
        fill: #faff2e;
        opacity: .81;
      }

      .cls-10 {
        isolation: isolate;
      }

      .cls-4 {
        fill: #8f78ce;
      }

      .cls-5 {
        fill: url(#radial-gradient-2);
      }

      .cls-6 {
        fill: #c8e2fc;
      }

      .cls-7 {
        fill: #494543;
        mix-blend-mode: multiply;
      }

      .cls-8 {
        fill: url(#radial-gradient-3);
      }

      .cls-9 {
        fill: #002824;
      }
    </style>
    <radialGradient id="radial-gradient" cx="14.48" cy="638.13" fx="14.48" fy="638.13" r="43.46" gradientTransform="translate(284.58 -646.93) rotate(25.48) scale(.84 1.1) skewX(19.09)" gradientUnits="userSpaceOnUse">
      <stop offset="0" stop-color="#ffdc63"/>
      <stop offset=".27" stop-color="rgba(255, 220, 100, .99)" stop-opacity=".99"/>
      <stop offset=".41" stop-color="rgba(255, 221, 105, .96)" stop-opacity=".96"/>
      <stop offset=".52" stop-color="rgba(255, 223, 113, .91)" stop-opacity=".91"/>
      <stop offset=".61" stop-color="rgba(255, 225, 124, .83)" stop-opacity=".83"/>
      <stop offset=".69" stop-color="rgba(255, 229, 139, .74)" stop-opacity=".74"/>
      <stop offset=".77" stop-color="rgba(255, 233, 158, .62)" stop-opacity=".62"/>
      <stop offset=".84" stop-color="rgba(255, 238, 180, .48)" stop-opacity=".48"/>
      <stop offset=".9" stop-color="rgba(255, 244, 206, .31)" stop-opacity=".31"/>
      <stop offset=".96" stop-color="rgba(255, 250, 234, .13)" stop-opacity=".13"/>
      <stop offset="1" stop-color="#fff" stop-opacity="0"/>
    </radialGradient>
    <radialGradient id="radial-gradient-2" cx="-140.68" cy="676.72" fx="-140.68" fy="676.72" r="43.46" xlink:href="#radial-gradient"/>
    <radialGradient id="radial-gradient-3" cx="158.93" cy="570.68" fx="158.93" fy="570.68" r="43.46" xlink:href="#radial-gradient"/>
  </defs>
  <g class="cls-10">
    <g id="Layer_2" data-name="Layer 2">
      <g id="Candle">
        <g>
          <g>
            <ellipse class="cls-7" cx="163.23" cy="275.51" rx="22.57" ry="6.9"/>
            <path class="cls-2" d="M193.75,90.36c-5.08,26.94-24.01,41.73-42.29,33.02-18.28-8.71-28.98-37.61-23.9-64.55,5.08-26.94,24.01-41.73,42.29-33.02,18.28,8.71,28.98,37.61,23.9,64.55Z"/>
            <path class="cls-6" d="M175.36,275.91c-4.46,3.72-21.6,3.72-25.36,0V90.66h25.36v185.24Z"/>
            <g>
              <path class="cls-4" d="M175.36,143.8c-8.97-3.43-17.48-8.8-25.36-15.84v11.2c7.96,6.21,16.46,10.93,25.36,13.94v-9.31Z"/>
              <path class="cls-4" d="M175.36,105.2c-8.41-3.22-16.41-8.13-23.88-14.53h-1.48v9.92c7.96,6.2,16.47,10.91,25.36,13.92v-9.31Z"/>
              <path class="cls-4" d="M175.36,220.97c-8.97-3.43-17.48-8.8-25.36-15.84v11.22c7.96,6.21,16.46,10.93,25.36,13.94v-9.32Z"/>
              <path class="cls-4" d="M175.36,259.56c-8.97-3.43-17.48-8.8-25.36-15.84v11.21c7.96,6.2,16.46,10.92,25.36,13.93v-9.31Z"/>
              <path class="cls-4" d="M175.36,182.38c-8.97-3.43-17.48-8.8-25.36-15.84v11.22c7.96,6.2,16.46,10.93,25.36,13.94v-9.32Z"/>
            </g>
            <path class="cls-4" d="M175.52,90.48c0,1.78-5.76,3.22-12.86,3.22-7.11,0-12.87-1.44-12.87-3.22s5.76-3.22,12.86-3.22,12.87,1.44,12.87,3.22Z"/>
            <path class="cls-9" d="M162.33,92.13c-.92,0-1.67-.75-1.67-1.67v-12.44c0-.92.75-1.67,1.67-1.67s1.67.75,1.67,1.67v12.44c0,.92-.75,1.67-1.67,1.67Z"/>
            <path class="cls-3" d="M172.57,72.96c0,5.69-4.62,10.31-10.31,10.31s-10.31-4.62-10.31-10.31,10.31-22.28,10.31-22.28c0,0,10.31,16.59,10.31,22.28Z"/>
            <path class="cls-1" d="M167.94,75.59c0,3.1-2.51,5.61-5.61,5.61s-5.61-2.51-5.61-5.61,5.61-12.13,5.61-12.13c0,0,5.61,9.03,5.61,12.13Z"/>
          </g>
          <g>
            <ellipse class="cls-7" cx="36.93" cy="262.54" rx="22.57" ry="6.9"/>
            <path class="cls-5" d="M67.45,77.39c-5.08,26.94-24.01,41.73-42.29,33.02C6.89,101.71-3.81,72.8,1.26,45.86S25.27,4.13,43.55,12.84c18.28,8.71,28.98,37.61,23.9,64.55Z"/>
            <path class="cls-6" d="M49.06,262.94c-4.46,3.72-21.6,3.72-25.36,0V77.69h25.36v185.24Z"/>
            <g>
              <path class="cls-4" d="M49.06,130.83c-8.97-3.43-17.48-8.8-25.36-15.84v11.2c7.96,6.21,16.46,10.93,25.36,13.94v-9.31Z"/>
              <path class="cls-4" d="M49.06,92.23c-8.41-3.22-16.41-8.13-23.88-14.53h-1.48v9.92c7.96,6.2,16.47,10.91,25.36,13.92v-9.31Z"/>
              <path class="cls-4" d="M49.06,208c-8.97-3.43-17.48-8.8-25.36-15.84v11.22c7.96,6.21,16.46,10.93,25.36,13.94v-9.32Z"/>
              <path class="cls-4" d="M49.06,246.59c-8.97-3.43-17.48-8.8-25.36-15.84v11.21c7.96,6.2,16.46,10.92,25.36,13.93v-9.31Z"/>
              <path class="cls-4" d="M49.06,169.41c-8.97-3.43-17.48-8.8-25.36-15.84v11.22c7.96,6.2,16.46,10.93,25.36,13.94v-9.32Z"/>
            </g>
            <path class="cls-4" d="M49.22,77.51c0,1.78-5.76,3.22-12.86,3.22-7.11,0-12.87-1.44-12.87-3.22s5.76-3.22,12.86-3.22,12.87,1.44,12.87,3.22Z"/>
            <path class="cls-9" d="M36.03,79.16c-.92,0-1.67-.75-1.67-1.67v-12.44c0-.92.75-1.67,1.67-1.67s1.67.75,1.67,1.67v12.44c0,.92-.75,1.67-1.67,1.67Z"/>
            <path class="cls-3" d="M46.27,59.99c0,5.69-4.62,10.31-10.31,10.31s-10.31-4.62-10.31-10.31,10.31-22.28,10.31-22.28c0,0,10.31,16.59,10.31,22.28Z"/>
            <path class="cls-1" d="M41.64,62.62c0,3.1-2.51,5.61-5.61,5.61s-5.61-2.51-5.61-5.61,5.61-12.13,5.61-12.13c0,0,5.61,9.03,5.61,12.13Z"/>
          </g>
          <g>
            <ellipse class="cls-7" cx="287.48" cy="252.2" rx="22.57" ry="6.9"/>
            <path class="cls-8" d="M318,67.05c-5.08,26.94-24.01,41.73-42.29,33.02-18.28-8.71-28.98-37.61-23.9-64.55s24.01-41.73,42.29-33.02c18.28,8.71,28.98,37.61,23.9,64.55Z"/>
            <path class="cls-6" d="M299.61,252.59c-4.46,3.72-21.6,3.72-25.36,0V67.35h25.36v185.24Z"/>
            <g>
              <path class="cls-4" d="M299.61,120.49c-8.97-3.43-17.48-8.8-25.36-15.84v11.2c7.96,6.21,16.46,10.93,25.36,13.94v-9.31Z"/>
              <path class="cls-4" d="M299.61,81.89c-8.41-3.22-16.41-8.13-23.88-14.53h-1.48v9.92c7.96,6.2,16.47,10.91,25.36,13.92v-9.31Z"/>
              <path class="cls-4" d="M299.61,197.65c-8.97-3.43-17.48-8.8-25.36-15.84v11.22c7.96,6.21,16.46,10.93,25.36,13.94v-9.32Z"/>
              <path class="cls-4" d="M299.61,236.25c-8.97-3.43-17.48-8.8-25.36-15.84v11.21c7.96,6.2,16.46,10.92,25.36,13.93v-9.31Z"/>
              <path class="cls-4" d="M299.61,159.06c-8.97-3.43-17.48-8.8-25.36-15.84v11.22c7.96,6.2,16.46,10.93,25.36,13.94v-9.32Z"/>
            </g>
            <path class="cls-4" d="M299.77,67.17c0,1.78-5.76,3.22-12.86,3.22-7.11,0-12.87-1.44-12.87-3.22s5.76-3.22,12.86-3.22,12.87,1.44,12.87,3.22Z"/>
            <path class="cls-9" d="M286.58,68.82c-.92,0-1.67-.75-1.67-1.67v-12.44c0-.92.75-1.67,1.67-1.67s1.67.75,1.67,1.67v12.44c0,.92-.75,1.67-1.67,1.67Z"/>
            <path class="cls-3" d="M296.82,49.65c0,5.69-4.62,10.31-10.31,10.31s-10.31-4.62-10.31-10.31,10.31-22.28,10.31-22.28c0,0,10.31,16.59,10.31,22.28Z"/>
            <path class="cls-1" d="M292.19,52.27c0,3.1-2.51,5.61-5.61,5.61s-5.61-2.51-5.61-5.61,5.61-12.13,5.61-12.13c0,0,5.61,9.03,5.61,12.13Z"/>
          </g>
        </g>
      </g>
    </g>
  </g>
</svg>