<?xml version="1.0" encoding="UTF-8"?>
<svg xmlns="http://www.w3.org/2000/svg" xmlns:xlink="http://www.w3.org/1999/xlink" viewBox="0 0 51.93 195.82">
  <defs>
    <style>
      .cls-1 {
        fill: #ffa631;
        opacity: .55;
      }

      .cls-1, .cls-2, .cls-3, .cls-4, .cls-5, .cls-6, .cls-7 {
        stroke-width: 0px;
      }

      .cls-2 {
        fill: url(#radial-gradient);
        opacity: .75;
      }

      .cls-3 {
        fill: #faff2e;
        opacity: .81;
      }

      .cls-8 {
        isolation: isolate;
      }

      .cls-4 {
        fill: #8f78ce;
      }

      .cls-5 {
        fill: #c8e2fc;
      }

      .cls-6 {
        fill: #494543;
        mix-blend-mode: multiply;
      }

      .cls-7 {
        fill: #002824;
      }
    </style>
    <radialGradient id="radial-gradient" cx="-576.38" cy="1101.07" fx="-576.38" fy="1101.07" r="32.85" gradientTransform="translate(697.68 -988.06) rotate(25.48) scale(.84 1.1) skewX(19.09)" gradientUnits="userSpaceOnUse">
      <stop offset="0" stop-color="#ffdc63"/>
      <stop offset=".27" stop-color="rgba(255, 220, 100, .99)" stop-opacity=".99"/>
      <stop offset=".41" stop-color="rgba(255, 221, 105, .96)" stop-opacity=".96"/>
      <stop offset=".52" stop-color="rgba(255, 223, 113, .91)" stop-opacity=".91"/>
      <stop offset=".61" stop-color="rgba(255, 225, 124, .83)" stop-opacity=".83"/>
      <stop offset=".69" stop-color="rgba(255, 229, 139, .74)" stop-opacity=".74"/>
      <stop offset=".77" stop-color="rgba(255, 233, 158, .62)" stop-opacity=".62"/>
      <stop offset=".84" stop-color="rgba(255, 238, 180, .48)" stop-opacity=".48"/>
      <stop offset=".9" stop-color="rgba(255, 244, 206, .31)" stop-opacity=".31"/>
      <stop offset=".96" stop-color="rgba(255, 250, 234, .13)" stop-opacity=".13"/>
      <stop offset="1" stop-color="#fff" stop-opacity="0"/>
    </radialGradient>
  </defs>
  <g class="cls-8">
    <g id="Layer_2" data-name="Layer 2">
      <g id="Layer_7" data-name="Layer 7">
        <g>
          <ellipse class="cls-6" cx="27.91" cy="190.61" rx="17.06" ry="5.21"/>
          <path class="cls-2" d="M50.98,50.68c-3.84,20.36-18.15,31.54-31.96,24.96C5.21,69.05-2.88,47.21.95,26.84,4.79,6.48,19.1-4.69,32.91,1.89c13.81,6.58,21.9,28.43,18.07,48.79Z"/>
          <path class="cls-5" d="M37.08,190.91c-3.37,2.81-16.32,2.81-19.17,0V50.9h19.17v140.01Z"/>
          <g>
            <path class="cls-4" d="M37.08,91.06c-6.78-2.59-13.21-6.65-19.17-11.97v8.47c6.02,4.69,12.44,8.26,19.17,10.54v-7.03Z"/>
            <path class="cls-4" d="M37.08,61.89c-6.35-2.43-12.41-6.14-18.05-10.99h-1.12v7.5c6.02,4.69,12.44,8.24,19.17,10.52v-7.03Z"/>
            <path class="cls-4" d="M37.08,149.39c-6.78-2.59-13.21-6.65-19.17-11.97v8.48c6.02,4.69,12.44,8.26,19.17,10.54v-7.05Z"/>
            <path class="cls-4" d="M37.08,178.55c-6.78-2.59-13.21-6.65-19.17-11.97v8.48c6.02,4.69,12.44,8.25,19.17,10.53v-7.03Z"/>
            <path class="cls-4" d="M37.08,120.22c-6.78-2.59-13.21-6.65-19.17-11.97v8.48c6.02,4.69,12.44,8.26,19.17,10.54v-7.05Z"/>
          </g>
          <path class="cls-4" d="M37.2,50.76c0,1.34-4.35,2.43-9.72,2.43-5.37,0-9.72-1.09-9.72-2.43s4.35-2.43,9.72-2.43,9.72,1.09,9.72,2.43Z"/>
          <path class="cls-7" d="M27.23,52.01c-.7,0-1.26-.57-1.26-1.26v-9.4c0-.7.57-1.26,1.26-1.26s1.26.57,1.26,1.26v9.4c0,.7-.57,1.26-1.26,1.26Z"/>
          <path class="cls-3" d="M34.97,37.52c0,4.3-3.49,7.79-7.79,7.79s-7.79-3.49-7.79-7.79,7.79-16.84,7.79-16.84c0,0,7.79,12.54,7.79,16.84Z"/>
          <path class="cls-1" d="M31.47,39.51c0,2.34-1.9,4.24-4.24,4.24s-4.24-1.9-4.24-4.24,4.24-9.17,4.24-9.17c0,0,4.24,6.82,4.24,9.17Z"/>
        </g>
      </g>
    </g>
  </g>
</svg>