<?xml version="1.0" encoding="UTF-8"?>
<svg id="Layer_2" data-name="Layer 2" xmlns="http://www.w3.org/2000/svg" viewBox="0 0 485.14 240.02">
  <defs>
    <style>
      .cls-1 {
        fill: #8b5b3c;
      }

      .cls-1, .cls-2, .cls-3 {
        stroke-width: 0px;
      }

      .cls-2 {
        fill: #583115;
      }

      .cls-3 {
        fill: #724221;
      }
    </style>
  </defs>
  <g id="Choco">
    <g>
      <g>
        <g>
          <path class="cls-2" d="M301.55,239.32l-35.9-17.89c-2.08-1.04-2.7-2.86-1.39-4.06l30.04-27.34c1.31-1.2,4.09-1.33,6.17-.29l35.9,17.89c2.08,1.04,2.7,2.86,1.39,4.06l-30.04,27.34c-1.31,1.2-4.09,1.33-6.17.29Z"/>
          <path class="cls-2" d="M301.53,238.82l-35.79-17.83c-2.07-1.03-2.7-2.85-1.39-4.04l29.95-27.25c1.31-1.19,4.08-1.32,6.15-.29l35.79,17.83c2.07,1.03,2.7,2.85,1.39,4.04l-29.95,27.25c-1.31,1.19-4.08,1.32-6.15.29Z"/>
          <path class="cls-2" d="M301.52,238.32l-35.68-17.78c-2.07-1.03-2.69-2.84-1.38-4.03l29.85-27.17c1.31-1.19,4.06-1.32,6.13-.29l35.68,17.78c2.07,1.03,2.69,2.84,1.38,4.03l-29.85,27.17c-1.31,1.19-4.06,1.32-6.13.29Z"/>
          <path class="cls-2" d="M301.51,237.82l-35.57-17.72c-2.06-1.03-2.68-2.83-1.38-4.02l29.76-27.08c1.3-1.18,4.05-1.31,6.11-.29l35.57,17.72c2.06,1.03,2.68,2.83,1.38,4.02l-29.76,27.08c-1.3,1.18-4.05,1.31-6.11.29Z"/>
          <path class="cls-2" d="M301.5,237.31l-35.45-17.67c-2.05-1.02-2.67-2.83-1.37-4.01l29.67-27c1.3-1.18,4.04-1.31,6.09-.29l35.45,17.67c2.05,1.02,2.67,2.83,1.37,4.01l-29.67,27c-1.3,1.18-4.04,1.31-6.09.29Z"/>
          <path class="cls-2" d="M301.49,236.81l-35.34-17.61c-2.05-1.02-2.66-2.82-1.37-3.99l29.57-26.91c1.29-1.18,4.02-1.3,6.07-.29l35.34,17.61c2.05,1.02,2.66,2.82,1.37,3.99l-29.57,26.91c-1.29,1.18-4.02,1.3-6.07.29Z"/>
          <path class="cls-2" d="M301.48,236.31l-35.23-17.56c-2.04-1.02-2.65-2.81-1.37-3.98l29.48-26.83c1.29-1.17,4.01-1.3,6.05-.28l35.23,17.56c2.04,1.02,2.65,2.81,1.37,3.98l-29.48,26.83c-1.29,1.17-4.01,1.3-6.05.28Z"/>
          <path class="cls-2" d="M301.47,235.81l-35.12-17.5c-2.03-1.01-2.65-2.8-1.36-3.97l29.39-26.74c1.28-1.17,4-1.3,6.03-.28l35.12,17.5c2.03,1.01,2.65,2.8,1.36,3.97l-29.39,26.74c-1.28,1.17-4,1.3-6.03.28Z"/>
          <path class="cls-2" d="M301.46,235.3l-35.01-17.44c-2.03-1.01-2.64-2.79-1.36-3.96l29.29-26.66c1.28-1.17,3.99-1.29,6.01-.28l35.01,17.44c2.03,1.01,2.64,2.79,1.36,3.96l-29.29,26.66c-1.28,1.17-3.99,1.29-6.01.28Z"/>
          <path class="cls-2" d="M301.45,234.8l-34.9-17.39c-2.02-1.01-2.63-2.78-1.35-3.94l29.2-26.58c1.28-1.16,3.97-1.29,5.99-.28l34.9,17.39c2.02,1.01,2.63,2.78,1.35,3.94l-29.2,26.58c-1.28,1.16-3.97,1.29-5.99.28Z"/>
          <path class="cls-2" d="M301.44,234.3l-34.79-17.33c-2.01-1-2.62-2.77-1.35-3.93l29.11-26.49c1.27-1.16,3.96-1.28,5.98-.28l34.79,17.33c2.01,1,2.62,2.77,1.35,3.93l-29.11,26.49c-1.27,1.16-3.96,1.28-5.98.28Z"/>
          <path class="cls-2" d="M301.42,233.8l-34.68-17.28c-2.01-1-2.61-2.76-1.34-3.92l29.02-26.41c1.27-1.15,3.95-1.28,5.96-.28l34.68,17.28c2.01,1,2.61,2.76,1.34,3.92l-29.02,26.41c-1.27,1.15-3.95,1.28-5.96.28Z"/>
          <path class="cls-2" d="M301.41,233.3l-34.56-17.22c-2-1-2.6-2.75-1.34-3.91l28.92-26.32c1.26-1.15,3.94-1.28,5.94-.28l34.56,17.22c2,1,2.6,2.75,1.34,3.91l-28.92,26.32c-1.26,1.15-3.94,1.28-5.94.28Z"/>
          <path class="cls-2" d="M301.4,232.79l-34.45-17.17c-1.99-.99-2.6-2.75-1.34-3.89l28.83-26.24c1.26-1.15,3.92-1.27,5.92-.28l34.45,17.17c1.99.99,2.6,2.75,1.34,3.89l-28.83,26.24c-1.26,1.15-3.92,1.27-5.92.28Z"/>
          <path class="cls-2" d="M301.39,232.29l-34.34-17.11c-1.99-.99-2.59-2.74-1.33-3.88l28.74-26.15c1.26-1.14,3.91-1.27,5.9-.28l34.34,17.11c1.99.99,2.59,2.74,1.33,3.88l-28.74,26.15c-1.26,1.14-3.91,1.27-5.9.28Z"/>
          <path class="cls-2" d="M301.38,231.79l-34.23-17.06c-1.98-.99-2.58-2.73-1.33-3.87l28.64-26.07c1.25-1.14,3.9-1.26,5.88-.28l34.23,17.06c1.98.99,2.58,2.73,1.33,3.87l-28.64,26.07c-1.25,1.14-3.9,1.26-5.88.28Z"/>
          <path class="cls-2" d="M301.37,231.29l-34.12-17c-1.98-.98-2.57-2.72-1.32-3.85l28.55-25.98c1.25-1.14,3.89-1.26,5.86-.28l34.12,17c1.98.98,2.57,2.72,1.32,3.85l-28.55,25.98c-1.25,1.14-3.89,1.26-5.86.28Z"/>
          <path class="cls-2" d="M301.36,230.78l-34.01-16.95c-1.97-.98-2.56-2.71-1.32-3.84l28.46-25.9c1.24-1.13,3.87-1.26,5.84-.27l34.01,16.95c1.97.98,2.56,2.71,1.32,3.84l-28.46,25.9c-1.24,1.13-3.87,1.26-5.84.27Z"/>
          <path class="cls-2" d="M301.35,230.28l-33.9-16.89c-1.96-.98-2.55-2.7-1.31-3.83l28.36-25.81c1.24-1.13,3.86-1.25,5.82-.27l33.9,16.89c1.96.98,2.55,2.7,1.31,3.83l-28.36,25.81c-1.24,1.13-3.86,1.25-5.82.27Z"/>
          <path class="cls-2" d="M301.34,229.78l-33.79-16.84c-1.96-.97-2.55-2.69-1.31-3.82l28.27-25.73c1.24-1.12,3.85-1.25,5.8-.27l33.79,16.84c1.96.97,2.55,2.69,1.31,3.82l-28.27,25.73c-1.24,1.12-3.85,1.25-5.8.27Z"/>
          <path class="cls-2" d="M301.33,229.28l-33.67-16.78c-1.95-.97-2.54-2.68-1.31-3.8l28.18-25.64c1.23-1.12,3.83-1.24,5.78-.27l33.67,16.78c1.95.97,2.54,2.68,1.31,3.8l-28.18,25.64c-1.23,1.12-3.83,1.24-5.78.27Z"/>
          <path class="cls-2" d="M301.31,228.78l-33.56-16.72c-1.94-.97-2.53-2.67-1.3-3.79l28.09-25.56c1.23-1.12,3.82-1.24,5.77-.27l33.56,16.72c1.94.97,2.53,2.67,1.3,3.79l-28.09,25.56c-1.23,1.12-3.82,1.24-5.77.27Z"/>
          <path class="cls-2" d="M301.3,228.27l-33.45-16.67c-1.94-.97-2.52-2.67-1.3-3.78l27.99-25.47c1.22-1.11,3.81-1.24,5.75-.27l33.45,16.67c1.94.97,2.52,2.67,1.3,3.78l-27.99,25.47c-1.22,1.11-3.81,1.24-5.75.27Z"/>
          <path class="cls-2" d="M301.29,227.77l-33.34-16.61c-1.93-.96-2.51-2.66-1.29-3.77l27.9-25.39c1.22-1.11,3.8-1.23,5.73-.27l33.34,16.61c1.93.96,2.51,2.66,1.29,3.77l-27.9,25.39c-1.22,1.11-3.8,1.23-5.73.27Z"/>
          <path class="cls-2" d="M301.28,227.27l-33.23-16.56c-1.92-.96-2.5-2.65-1.29-3.75l27.81-25.3c1.22-1.11,3.78-1.23,5.71-.27l33.23,16.56c1.92.96,2.5,2.65,1.29,3.75l-27.81,25.3c-1.22,1.11-3.78,1.23-5.71.27Z"/>
          <path class="cls-2" d="M301.27,226.77l-33.12-16.5c-1.92-.96-2.5-2.64-1.28-3.74l27.71-25.22c1.21-1.1,3.77-1.22,5.69-.27l33.12,16.5c1.92.96,2.5,2.64,1.28,3.74l-27.71,25.22c-1.21,1.1-3.77,1.22-5.69.27Z"/>
          <path class="cls-2" d="M301.26,226.26l-33.01-16.45c-1.91-.95-2.49-2.63-1.28-3.73l27.62-25.14c1.21-1.1,3.76-1.22,5.67-.27l33.01,16.45c1.91.95,2.49,2.63,1.28,3.73l-27.62,25.14c-1.21,1.1-3.76,1.22-5.67.27Z"/>
          <path class="cls-2" d="M301.25,225.76l-32.9-16.39c-1.9-.95-2.48-2.62-1.28-3.72l27.53-25.05c1.2-1.1,3.75-1.21,5.65-.27l32.9,16.39c1.9.95,2.48,2.62,1.28,3.72l-27.53,25.05c-1.2,1.1-3.75,1.21-5.65.27Z"/>
          <path class="cls-2" d="M301.24,225.26l-32.79-16.34c-1.9-.95-2.47-2.61-1.27-3.7l27.43-24.97c1.2-1.09,3.73-1.21,5.63-.26l32.79,16.34c1.9.95,2.47,2.61,1.27,3.7l-27.43,24.97c-1.2,1.09-3.73,1.21-5.63.26Z"/>
          <path class="cls-2" d="M301.23,224.76l-32.67-16.28c-1.89-.94-2.46-2.6-1.27-3.69l27.34-24.88c1.2-1.09,3.72-1.21,5.61-.26l32.67,16.28c1.89.94,2.46,2.6,1.27,3.69l-27.34,24.88c-1.2,1.09-3.72,1.21-5.61.26Z"/>
          <path class="cls-2" d="M301.22,224.26l-32.56-16.23c-1.89-.94-2.45-2.6-1.26-3.68l27.25-24.8c1.19-1.08,3.71-1.2,5.59-.26l32.56,16.23c1.89.94,2.45,2.6,1.26,3.68l-27.25,24.8c-1.19,1.08-3.71,1.2-5.59.26Z"/>
          <path class="cls-2" d="M301.2,223.75l-32.45-16.17c-1.88-.94-2.45-2.59-1.26-3.67l27.15-24.71c1.19-1.08,3.7-1.2,5.57-.26l32.45,16.17c1.88.94,2.45,2.59,1.26,3.67l-27.15,24.71c-1.19,1.08-3.7,1.2-5.57.26Z"/>
          <path class="cls-2" d="M301.19,223.25l-32.34-16.11c-1.87-.93-2.44-2.58-1.25-3.65l27.06-24.63c1.18-1.08,3.68-1.19,5.56-.26l32.34,16.11c1.87.93,2.44,2.58,1.25,3.65l-27.06,24.63c-1.18,1.08-3.68,1.19-5.56.26Z"/>
          <path class="cls-2" d="M301.18,222.75l-32.23-16.06c-1.87-.93-2.43-2.57-1.25-3.64l26.97-24.54c1.18-1.07,3.67-1.19,5.54-.26l32.23,16.06c1.87.93,2.43,2.57,1.25,3.64l-26.97,24.54c-1.18,1.07-3.67,1.19-5.54.26Z"/>
          <path class="cls-2" d="M301.17,222.25l-32.12-16c-1.86-.93-2.42-2.56-1.25-3.63l26.88-24.46c1.17-1.07,3.66-1.19,5.52-.26l32.12,16c1.86.93,2.42,2.56,1.25,3.63l-26.88,24.46c-1.17,1.07-3.66,1.19-5.52.26Z"/>
          <path class="cls-2" d="M301.16,221.74l-32.01-15.95c-1.85-.92-2.41-2.55-1.24-3.62l26.78-24.37c1.17-1.07,3.65-1.18,5.5-.26l32.01,15.95c1.85.92,2.41,2.55,1.24,3.62l-26.78,24.37c-1.17,1.07-3.65,1.18-5.5.26Z"/>
          <path class="cls-2" d="M301.15,221.24l-31.9-15.89c-1.85-.92-2.4-2.54-1.24-3.6l26.69-24.29c1.17-1.06,3.63-1.18,5.48-.26l31.9,15.89c1.85.92,2.4,2.54,1.24,3.6l-26.69,24.29c-1.17,1.06-3.63,1.18-5.48.26Z"/>
          <path class="cls-2" d="M301.14,220.74l-31.78-15.84c-1.84-.92-2.39-2.53-1.23-3.59l26.6-24.2c1.16-1.06,3.62-1.17,5.46-.26l31.78,15.84c1.84.92,2.39,2.53,1.23,3.59l-26.6,24.2c-1.16,1.06-3.62,1.17-5.46.26Z"/>
          <path class="cls-2" d="M301.13,220.24l-31.67-15.78c-1.83-.91-2.39-2.52-1.23-3.58l26.5-24.12c1.16-1.05,3.61-1.17,5.44-.26l31.67,15.78c1.83.91,2.39,2.52,1.23,3.58l-26.5,24.12c-1.16,1.05-3.61,1.17-5.44.26Z"/>
          <path class="cls-2" d="M301.12,219.74l-31.56-15.73c-1.83-.91-2.38-2.52-1.22-3.57l26.41-24.03c1.15-1.05,3.59-1.17,5.42-.25l31.56,15.73c1.83.91,2.38,2.52,1.22,3.57l-26.41,24.03c-1.15,1.05-3.59,1.17-5.42.25Z"/>
          <path class="cls-2" d="M301.11,219.23l-31.45-15.67c-1.82-.91-2.37-2.51-1.22-3.55l26.32-23.95c1.15-1.05,3.58-1.16,5.4-.25l31.45,15.67c1.82.91,2.37,2.51,1.22,3.55l-26.32,23.95c-1.15,1.05-3.58,1.16-5.4.25Z"/>
          <path class="cls-2" d="M301.09,218.73l-31.34-15.62c-1.81-.9-2.36-2.5-1.21-3.54l26.22-23.87c1.15-1.04,3.57-1.16,5.38-.25l31.34,15.62c1.81.9,2.36,2.5,1.21,3.54l-26.22,23.87c-1.15,1.04-3.57,1.16-5.38.25Z"/>
          <path class="cls-2" d="M301.08,218.23l-31.23-15.56c-1.81-.9-2.35-2.49-1.21-3.53l26.13-23.78c1.14-1.04,3.56-1.15,5.36-.25l31.23,15.56c1.81.9,2.35,2.49,1.21,3.53l-26.13,23.78c-1.14,1.04-3.56,1.15-5.36.25Z"/>
          <path class="cls-2" d="M301.07,217.73l-31.12-15.51c-1.8-.9-2.34-2.48-1.21-3.52l26.04-23.7c1.14-1.04,3.54-1.15,5.35-.25l31.12,15.51c1.8.9,2.34,2.48,1.21,3.52l-26.04,23.7c-1.14,1.04-3.54,1.15-5.35.25Z"/>
          <path class="cls-2" d="M301.06,217.22l-31.01-15.45c-1.8-.89-2.34-2.47-1.2-3.5l25.95-23.61c1.13-1.03,3.53-1.14,5.33-.25l31.01,15.45c1.8.89,2.34,2.47,1.2,3.5l-25.95,23.61c-1.13,1.03-3.53,1.14-5.33.25Z"/>
          <path class="cls-2" d="M301.05,216.72l-30.9-15.39c-1.79-.89-2.33-2.46-1.2-3.49l25.85-23.53c1.13-1.03,3.52-1.14,5.31-.25l30.9,15.39c1.79.89,2.33,2.46,1.2,3.49l-25.85,23.53c-1.13,1.03-3.52,1.14-5.31.25Z"/>
          <path class="cls-2" d="M301.04,216.22l-30.78-15.34c-1.78-.89-2.32-2.45-1.19-3.48l25.76-23.44c1.13-1.02,3.51-1.14,5.29-.25l30.78,15.34c1.78.89,2.32,2.45,1.19,3.48l-25.76,23.44c-1.13,1.02-3.51,1.14-5.29.25Z"/>
          <path class="cls-2" d="M301.03,215.72l-30.67-15.28c-1.78-.88-2.31-2.44-1.19-3.47l25.67-23.36c1.12-1.02,3.49-1.13,5.27-.25l30.67,15.28c1.78.88,2.31,2.44,1.19,3.47l-25.67,23.36c-1.12,1.02-3.49,1.13-5.27.25Z"/>
          <path class="cls-2" d="M301.02,215.22l-30.56-15.23c-1.77-.88-2.3-2.44-1.18-3.45l25.57-23.27c1.12-1.02,3.48-1.13,5.25-.25l30.56,15.23c1.77.88,2.3,2.44,1.18,3.45l-25.57,23.27c-1.12,1.02-3.48,1.13-5.25.25Z"/>
          <path class="cls-2" d="M301.01,214.71l-30.45-15.17c-1.76-.88-2.29-2.43-1.18-3.44l25.48-23.19c1.11-1.01,3.47-1.12,5.23-.25l30.45,15.17c1.76.88,2.29,2.43,1.18,3.44l-25.48,23.19c-1.11,1.01-3.47,1.12-5.23.25Z"/>
          <path class="cls-2" d="M301,214.21l-30.34-15.12c-1.76-.88-2.29-2.42-1.18-3.43l25.39-23.1c1.11-1.01,3.46-1.12,5.21-.24l30.34,15.12c1.76.88,2.29,2.42,1.18,3.43l-25.39,23.1c-1.11,1.01-3.46,1.12-5.21.24Z"/>
          <path class="cls-2" d="M300.98,213.71l-30.23-15.06c-1.75-.87-2.28-2.41-1.17-3.42l25.29-23.02c1.11-1.01,3.44-1.12,5.19-.24l30.23,15.06c1.75.87,2.28,2.41,1.17,3.42l-25.29,23.02c-1.11,1.01-3.44,1.12-5.19.24Z"/>
        </g>
        <path class="cls-3" d="M300.98,213.71l-30.23-15.06c-1.75-.87-2.28-2.41-1.17-3.42l25.29-23.02c1.11-1.01,3.44-1.12,5.19-.24l30.23,15.06c1.75.87,2.28,2.41,1.17,3.42l-25.29,23.02c-1.11,1.01-3.44,1.12-5.19.24Z"/>
        <path class="cls-2" d="M274.95,197.6l21.11-19.21c.92-.84,2.87-.93,4.33-.2l25.23,12.57c.4.2.72.44.96.7.7-.84.23-2-1.14-2.68l-25.23-12.57c-1.46-.73-3.41-.64-4.33.2l-21.11,19.21c-.67.61-.62,1.45.02,2.15.05-.06.1-.11.16-.17Z"/>
        <path class="cls-1" d="M330.51,188.13l-25.29,23.02c-1.11,1.01-3.44,1.12-5.19.24l-30.23-15.06c-.26-.13-.49-.27-.69-.43-.35.93.26,2.04,1.65,2.73l30.23,15.06c1.75.87,4.09.76,5.19-.24l25.29-23.02c.94-.86.69-2.1-.48-2.99-.09.24-.25.48-.48.69Z"/>
      </g>
      <g>
        <g>
          <path class="cls-2" d="M167.42,234.41l-34.32-20.76c-1.99-1.2-2.46-3.07-1.06-4.16l32.17-24.8c1.41-1.08,4.18-.99,6.17.21l34.32,20.76c1.99,1.2,2.46,3.07,1.06,4.16l-32.17,24.8c-1.41,1.08-4.18.99-6.17-.21Z"/>
          <path class="cls-2" d="M167.45,233.91l-34.21-20.69c-1.98-1.2-2.45-3.06-1.05-4.14l32.07-24.72c1.4-1.08,4.17-.98,6.15.21l34.21,20.69c1.98,1.2,2.45,3.06,1.05,4.14l-32.07,24.72c-1.4,1.08-4.17.98-6.15-.21Z"/>
          <path class="cls-2" d="M167.48,233.41l-34.11-20.63c-1.97-1.19-2.45-3.05-1.05-4.13l31.97-24.64c1.4-1.08,4.16-.98,6.13.21l34.11,20.63c1.97,1.19,2.45,3.05,1.05,4.13l-31.97,24.64c-1.4,1.08-4.16.98-6.13-.21Z"/>
          <path class="cls-2" d="M167.51,232.91l-34-20.56c-1.97-1.19-2.44-3.04-1.05-4.12l31.87-24.57c1.39-1.07,4.14-.98,6.11.21l34,20.56c1.97,1.19,2.44,3.04,1.05,4.12l-31.87,24.57c-1.39,1.07-4.14.98-6.11-.21Z"/>
          <path class="cls-2" d="M167.54,232.41l-33.9-20.5c-1.96-1.19-2.43-3.03-1.04-4.1l31.77-24.49c1.39-1.07,4.13-.98,6.09.21l33.9,20.5c1.96,1.19,2.43,3.03,1.04,4.1l-31.77,24.49c-1.39,1.07-4.13.98-6.09-.21Z"/>
          <path class="cls-2" d="M167.57,231.9l-33.79-20.43c-1.96-1.18-2.42-3.02-1.04-4.09l31.67-24.41c1.38-1.07,4.12-.97,6.07.21l33.79,20.43c1.96,1.18,2.42,3.02,1.04,4.09l-31.67,24.41c-1.38,1.07-4.12.97-6.07-.21Z"/>
          <path class="cls-2" d="M167.6,231.4l-33.68-20.37c-1.95-1.18-2.42-3.01-1.04-4.08l31.57-24.34c1.38-1.06,4.1-.97,6.06.21l33.68,20.37c1.95,1.18,2.42,3.01,1.04,4.08l-31.57,24.34c-1.38,1.06-4.1.97-6.06-.21Z"/>
          <path class="cls-2" d="M167.63,230.9l-33.58-20.31c-1.94-1.18-2.41-3.01-1.03-4.07l31.47-24.26c1.38-1.06,4.09-.97,6.04.21l33.58,20.31c1.94,1.18,2.41,3.01,1.03,4.07l-31.47,24.26c-1.38,1.06-4.09.97-6.04-.21Z"/>
          <path class="cls-2" d="M167.66,230.4l-33.47-20.24c-1.94-1.17-2.4-3-1.03-4.05l31.37-24.18c1.37-1.06,4.08-.96,6.02.21l33.47,20.24c1.94,1.17,2.4,3,1.03,4.05l-31.37,24.18c-1.37,1.06-4.08.96-6.02-.21Z"/>
          <path class="cls-2" d="M167.69,229.9l-33.36-20.18c-1.93-1.17-2.39-2.99-1.03-4.04l31.27-24.1c1.37-1.05,4.07-.96,6,.21l33.36,20.18c1.93,1.17,2.39,2.99,1.03,4.04l-31.27,24.1c-1.37,1.05-4.07.96-6-.21Z"/>
          <path class="cls-2" d="M167.72,229.4l-33.26-20.11c-1.93-1.16-2.39-2.98-1.02-4.03l31.17-24.03c1.36-1.05,4.05-.96,5.98.21l33.26,20.11c1.93,1.16,2.39,2.98,1.02,4.03l-31.17,24.03c-1.36,1.05-4.05.96-5.98-.21Z"/>
          <path class="cls-2" d="M167.75,228.9l-33.15-20.05c-1.92-1.16-2.38-2.97-1.02-4.01l31.07-23.95c1.36-1.05,4.04-.95,5.96.21l33.15,20.05c1.92,1.16,2.38,2.97,1.02,4.01l-31.07,23.95c-1.36,1.05-4.04.95-5.96-.21Z"/>
          <path class="cls-2" d="M167.78,228.39l-33.04-19.98c-1.91-1.16-2.37-2.96-1.02-4l30.97-23.87c1.35-1.04,4.03-.95,5.94.21l33.04,19.98c1.91,1.16,2.37,2.96,1.02,4l-30.97,23.87c-1.35,1.04-4.03.95-5.94-.21Z"/>
          <path class="cls-2" d="M167.81,227.89l-32.94-19.92c-1.91-1.15-2.36-2.95-1.01-3.99l30.87-23.8c1.35-1.04,4.01-.95,5.92.21l32.94,19.92c1.91,1.15,2.36,2.95,1.01,3.99l-30.87,23.8c-1.35,1.04-4.01.95-5.92-.21Z"/>
          <path class="cls-2" d="M167.84,227.39l-32.83-19.86c-1.9-1.15-2.36-2.94-1.01-3.98l30.77-23.72c1.35-1.04,4-.94,5.9.2l32.83,19.86c1.9,1.15,2.36,2.94,1.01,3.98l-30.77,23.72c-1.35,1.04-4,.94-5.9-.2Z"/>
          <path class="cls-2" d="M167.87,226.89l-32.73-19.79c-1.89-1.15-2.35-2.93-1.01-3.96l30.67-23.64c1.34-1.03,3.99-.94,5.88.2l32.73,19.79c1.89,1.15,2.35,2.93,1.01,3.96l-30.67,23.64c-1.34,1.03-3.99.94-5.88-.2Z"/>
          <path class="cls-2" d="M167.9,226.39l-32.62-19.73c-1.89-1.14-2.34-2.92-1-3.95l30.57-23.57c1.34-1.03,3.98-.94,5.86.2l32.62,19.73c1.89,1.14,2.34,2.92,1,3.95l-30.57,23.57c-1.34,1.03-3.98.94-5.86-.2Z"/>
          <path class="cls-2" d="M167.93,225.89l-32.51-19.66c-1.88-1.14-2.33-2.91-1-3.94l30.47-23.49c1.33-1.03,3.96-.94,5.84.2l32.51,19.66c1.88,1.14,2.33,2.91,1,3.94l-30.47,23.49c-1.33,1.03-3.96.94-5.84-.2Z"/>
          <path class="cls-2" d="M167.96,225.39l-32.41-19.6c-1.88-1.13-2.33-2.9-1-3.92l30.38-23.41c1.33-1.02,3.95-.93,5.83.2l32.41,19.6c1.88,1.13,2.33,2.9,1,3.92l-30.38,23.41c-1.33,1.02-3.95.93-5.83-.2Z"/>
          <path class="cls-2" d="M167.99,224.88l-32.3-19.53c-1.87-1.13-2.32-2.89-.99-3.91l30.28-23.34c1.32-1.02,3.94-.93,5.81.2l32.3,19.53c1.87,1.13,2.32,2.89.99,3.91l-30.28,23.34c-1.32,1.02-3.94.93-5.81-.2Z"/>
          <path class="cls-2" d="M168.02,224.38l-32.19-19.47c-1.86-1.13-2.31-2.88-.99-3.9l30.18-23.26c1.32-1.02,3.92-.93,5.79.2l32.19,19.47c1.86,1.13,2.31,2.88.99,3.9l-30.18,23.26c-1.32,1.02-3.92.93-5.79-.2Z"/>
          <path class="cls-2" d="M168.05,223.88l-32.09-19.41c-1.86-1.12-2.3-2.87-.99-3.89l30.08-23.18c1.31-1.01,3.91-.92,5.77.2l32.09,19.41c1.86,1.12,2.3,2.87.99,3.89l-30.08,23.18c-1.31,1.01-3.91.92-5.77-.2Z"/>
          <path class="cls-2" d="M168.08,223.38l-31.98-19.34c-1.85-1.12-2.29-2.86-.98-3.87l29.98-23.11c1.31-1.01,3.9-.92,5.75.2l31.98,19.34c1.85,1.12,2.29,2.86.98,3.87l-29.98,23.11c-1.31,1.01-3.9.92-5.75-.2Z"/>
          <path class="cls-2" d="M168.11,222.88l-31.88-19.28c-1.85-1.12-2.29-2.85-.98-3.86l29.88-23.03c1.31-1.01,3.88-.92,5.73.2l31.88,19.28c1.85,1.12,2.29,2.85.98,3.86l-29.88,23.03c-1.31,1.01-3.88.92-5.73-.2Z"/>
          <path class="cls-2" d="M168.14,222.38l-31.77-19.21c-1.84-1.11-2.28-2.84-.98-3.85l29.78-22.95c1.3-1,3.87-.91,5.71.2l31.77,19.21c1.84,1.11,2.28,2.84.98,3.85l-29.78,22.95c-1.3,1-3.87.91-5.71-.2Z"/>
          <path class="cls-2" d="M168.17,221.88l-31.66-19.15c-1.83-1.11-2.27-2.83-.97-3.83l29.68-22.88c1.3-1,3.86-.91,5.69.2l31.66,19.15c1.83,1.11,2.27,2.83.97,3.83l-29.68,22.88c-1.3,1-3.86.91-5.69-.2Z"/>
          <path class="cls-2" d="M168.2,221.37l-31.56-19.08c-1.83-1.1-2.26-2.82-.97-3.82l29.58-22.8c1.29-1,3.85-.91,5.67.2l31.56,19.08c1.83,1.1,2.26,2.82.97,3.82l-29.58,22.8c-1.29,1-3.85.91-5.67-.2Z"/>
          <path class="cls-2" d="M168.23,220.87l-31.45-19.02c-1.82-1.1-2.26-2.82-.97-3.81l29.48-22.72c1.29-.99,3.83-.9,5.65.2l31.45,19.02c1.82,1.1,2.26,2.82.97,3.81l-29.48,22.72c-1.29.99-3.83.9-5.65-.2Z"/>
          <path class="cls-2" d="M168.26,220.37l-31.34-18.96c-1.81-1.1-2.25-2.81-.96-3.8l29.38-22.65c1.28-.99,3.82-.9,5.63.2l31.34,18.96c1.81,1.1,2.25,2.81.96,3.8l-29.38,22.65c-1.28.99-3.82.9-5.63-.2Z"/>
          <path class="cls-2" d="M168.29,219.87l-31.24-18.89c-1.81-1.09-2.24-2.8-.96-3.78l29.28-22.57c1.28-.99,3.81-.9,5.62.2l31.24,18.89c1.81,1.09,2.24,2.8.96,3.78l-29.28,22.57c-1.28.99-3.81.9-5.62-.19Z"/>
          <path class="cls-2" d="M168.32,219.37l-31.13-18.83c-1.8-1.09-2.23-2.79-.96-3.77l29.18-22.49c1.28-.98,3.79-.9,5.6.19l31.13,18.83c1.8,1.09,2.23,2.79.96,3.77l-29.18,22.49c-1.28.98-3.79.9-5.6-.19Z"/>
          <path class="cls-2" d="M168.35,218.87l-31.02-18.76c-1.8-1.09-2.23-2.78-.95-3.76l29.08-22.42c1.27-.98,3.78-.89,5.58.19l31.02,18.76c1.8,1.09,2.23,2.78.95,3.76l-29.08,22.42c-1.27.98-3.78.89-5.58-.19Z"/>
          <path class="cls-2" d="M168.38,218.37l-30.92-18.7c-1.79-1.08-2.22-2.77-.95-3.74l28.98-22.34c1.27-.98,3.77-.89,5.56.19l30.92,18.7c1.79,1.08,2.22,2.77.95,3.74l-28.98,22.34c-1.27.98-3.77.89-5.56-.19Z"/>
          <path class="cls-2" d="M168.41,217.86l-30.81-18.63c-1.78-1.08-2.21-2.76-.95-3.73l28.88-22.26c1.26-.97,3.76-.89,5.54.19l30.81,18.63c1.78,1.08,2.21,2.76.95,3.73l-28.88,22.26c-1.26.97-3.76.89-5.54-.19Z"/>
          <path class="cls-2" d="M168.44,217.36l-30.71-18.57c-1.78-1.08-2.2-2.75-.94-3.72l28.78-22.18c1.26-.97,3.74-.88,5.52.19l30.71,18.57c1.78,1.08,2.2,2.75.94,3.72l-28.78,22.18c-1.26.97-3.74.88-5.52-.19Z"/>
          <path class="cls-2" d="M168.47,216.86l-30.6-18.51c-1.77-1.07-2.2-2.74-.94-3.71l28.68-22.11c1.25-.97,3.73-.88,5.5.19l30.6,18.51c1.77,1.07,2.2,2.74.94,3.71l-28.68,22.11c-1.25.97-3.73.88-5.5-.19Z"/>
          <path class="cls-2" d="M168.5,216.36l-30.49-18.44c-1.77-1.07-2.19-2.73-.94-3.69l28.58-22.03c1.25-.96,3.72-.88,5.48.19l30.49,18.44c1.77,1.07,2.19,2.73.94,3.69l-28.58,22.03c-1.25.96-3.72.88-5.48-.19Z"/>
          <path class="cls-2" d="M168.53,215.86l-30.39-18.38c-1.76-1.06-2.18-2.72-.94-3.68l28.48-21.95c1.25-.96,3.7-.87,5.46.19l30.39,18.38c1.76,1.06,2.18,2.72.94,3.68l-28.48,21.95c-1.25.96-3.7.87-5.46-.19Z"/>
          <path class="cls-2" d="M168.56,215.36l-30.28-18.31c-1.75-1.06-2.17-2.71-.93-3.67l28.38-21.88c1.24-.96,3.69-.87,5.44.19l30.28,18.31c1.75,1.06,2.17,2.71.93,3.67l-28.38,21.88c-1.24.96-3.69.87-5.44-.19Z"/>
          <path class="cls-2" d="M168.59,214.86l-30.17-18.25c-1.75-1.06-2.16-2.7-.93-3.65l28.28-21.8c1.24-.95,3.68-.87,5.42.19l30.17,18.25c1.75,1.06,2.16,2.7.93,3.65l-28.28,21.8c-1.24.95-3.68.87-5.42-.19Z"/>
          <path class="cls-2" d="M168.62,214.35l-30.07-18.18c-1.74-1.05-2.16-2.69-.93-3.64l28.18-21.72c1.23-.95,3.66-.87,5.41.19l30.07,18.18c1.74,1.05,2.16,2.69.93,3.64l-28.18,21.72c-1.23.95-3.66.87-5.41-.19Z"/>
          <path class="cls-2" d="M168.65,213.85l-29.96-18.12c-1.73-1.05-2.15-2.68-.92-3.63l28.08-21.65c1.23-.95,3.65-.86,5.39.19l29.96,18.12c1.73,1.05,2.15,2.68.92,3.63l-28.08,21.65c-1.23.95-3.65.86-5.39-.19Z"/>
          <path class="cls-2" d="M168.68,213.35l-29.86-18.06c-1.73-1.05-2.14-2.67-.92-3.62l27.98-21.57c1.22-.94,3.64-.86,5.37.19l29.86,18.06c1.73,1.05,2.14,2.67.92,3.62l-27.98,21.57c-1.22.94-3.64.86-5.37-.19Z"/>
          <path class="cls-2" d="M168.71,212.85l-29.75-17.99c-1.72-1.04-2.13-2.66-.92-3.6l27.88-21.49c1.22-.94,3.63-.86,5.35.19l29.75,17.99c1.72,1.04,2.13,2.66.92,3.6l-27.88,21.49c-1.22.94-3.63.86-5.35-.19Z"/>
          <path class="cls-2" d="M168.74,212.35l-29.64-17.93c-1.72-1.04-2.13-2.65-.91-3.59l27.78-21.42c1.21-.94,3.61-.85,5.33.19l29.64,17.93c1.72,1.04,2.13,2.65.91,3.59l-27.78,21.42c-1.21.94-3.61.85-5.33-.18Z"/>
          <path class="cls-2" d="M168.77,211.85l-29.54-17.86c-1.71-1.03-2.12-2.64-.91-3.58l27.68-21.34c1.21-.93,3.6-.85,5.31.18l29.54,17.86c1.71,1.03,2.12,2.64.91,3.58l-27.68,21.34c-1.21.93-3.6.85-5.31-.18Z"/>
          <path class="cls-2" d="M168.8,211.35l-29.43-17.8c-1.7-1.03-2.11-2.63-.91-3.56l27.59-21.26c1.21-.93,3.59-.85,5.29.18l29.43,17.8c1.7,1.03,2.11,2.63.91,3.56l-27.59,21.26c-1.21.93-3.59.85-5.29-.18Z"/>
          <path class="cls-2" d="M168.83,210.84l-29.32-17.73c-1.7-1.03-2.1-2.62-.9-3.55l27.49-21.19c1.2-.93,3.57-.84,5.27.18l29.32,17.73c1.7,1.03,2.1,2.62.9,3.55l-27.49,21.19c-1.2.93-3.57.84-5.27-.18Z"/>
          <path class="cls-2" d="M168.86,210.34l-29.22-17.67c-1.69-1.02-2.1-2.62-.9-3.54l27.39-21.11c1.2-.92,3.56-.84,5.25.18l29.22,17.67c1.69,1.02,2.1,2.62.9,3.54l-27.39,21.11c-1.2.92-3.56.84-5.25-.18Z"/>
          <path class="cls-2" d="M168.89,209.84l-29.11-17.61c-1.69-1.02-2.09-2.61-.9-3.53l27.29-21.03c1.19-.92,3.55-.84,5.23.18l29.11,17.61c1.69,1.02,2.09,2.61.9,3.53l-27.29,21.03c-1.19.92-3.55.84-5.23-.18Z"/>
          <path class="cls-2" d="M168.92,209.34l-29-17.54c-1.68-1.02-2.08-2.6-.89-3.51l27.19-20.96c1.19-.92,3.53-.83,5.21.18l29,17.54c1.68,1.02,2.08,2.6.89,3.51l-27.19,20.96c-1.19.92-3.53.83-5.21-.18Z"/>
          <path class="cls-2" d="M168.95,208.84l-28.9-17.48c-1.67-1.01-2.07-2.59-.89-3.5l27.09-20.88c1.18-.91,3.52-.83,5.2.18l28.9,17.48c1.67,1.01,2.07,2.59.89,3.5l-27.09,20.88c-1.18.91-3.52.83-5.2-.18Z"/>
        </g>
        <path class="cls-3" d="M168.95,208.84l-28.9-17.48c-1.67-1.01-2.07-2.59-.89-3.5l27.09-20.88c1.18-.91,3.52-.83,5.2.18l28.9,17.48c1.67,1.01,2.07,2.59.89,3.5l-27.09,20.88c-1.18.91-3.52.83-5.2-.18Z"/>
        <path class="cls-2" d="M144.31,190.66l22.61-17.43c.99-.76,2.94-.69,4.34.15l24.12,14.59c.38.23.68.5.9.78.77-.78.39-1.98-.92-2.77l-24.12-14.59c-1.4-.84-3.35-.91-4.34-.15l-22.61,17.43c-.72.55-.73,1.4-.16,2.14.05-.05.11-.1.17-.15Z"/>
        <path class="cls-1" d="M200.46,185.75l-27.09,20.88c-1.18.91-3.52.83-5.2-.18l-28.9-17.48c-.25-.15-.46-.31-.65-.48-.43.9.1,2.05,1.42,2.86l28.9,17.48c1.67,1.01,4.01,1.09,5.2.18l27.09-20.88c1.01-.78.86-2.04-.24-3.02-.11.24-.29.45-.53.64Z"/>
      </g>
      <g>
        <g>
          <path class="cls-2" d="M39.15,214.46l34.32-20.76c1.99-1.2,2.46-3.07,1.06-4.16l-32.17-24.8c-1.41-1.08-4.18-.99-6.17.21L1.86,185.72c-1.99,1.2-2.46,3.07-1.06,4.16l32.17,24.8c1.41,1.08,4.18.99,6.17-.21Z"/>
          <path class="cls-2" d="M39.12,213.96l34.21-20.69c1.98-1.2,2.45-3.06,1.05-4.14l-32.07-24.72c-1.4-1.08-4.17-.98-6.15.21L1.95,185.31c-1.98,1.2-2.45,3.06-1.05,4.14l32.07,24.72c1.4,1.08,4.17.98,6.15-.21Z"/>
          <path class="cls-2" d="M39.09,213.45l34.11-20.63c1.97-1.19,2.45-3.05,1.05-4.13l-31.97-24.64c-1.4-1.08-4.16-.98-6.13.21L2.04,184.89c-1.97,1.19-2.45,3.05-1.05,4.13l31.97,24.64c1.4,1.08,4.16.98,6.13-.21Z"/>
          <path class="cls-2" d="M39.06,212.95l34-20.56c1.97-1.19,2.44-3.04,1.05-4.12l-31.87-24.57c-1.39-1.07-4.14-.98-6.11.21L2.12,184.48c-1.97,1.19-2.44,3.04-1.05,4.12l31.87,24.57c1.39,1.07,4.14.98,6.11-.21Z"/>
          <path class="cls-2" d="M39.03,212.45l33.9-20.5c1.96-1.19,2.43-3.03,1.04-4.1l-31.77-24.49c-1.39-1.07-4.13-.98-6.09.21L2.21,184.07c-1.96,1.19-2.43,3.03-1.04,4.1l31.77,24.49c1.39,1.07,4.13.98,6.09-.21Z"/>
          <path class="cls-2" d="M39,211.95l33.79-20.43c1.96-1.18,2.42-3.02,1.04-4.09l-31.67-24.41c-1.38-1.07-4.12-.97-6.07.21L2.29,183.66c-1.96,1.18-2.42,3.02-1.04,4.09l31.67,24.41c1.38,1.07,4.12.97,6.07-.21Z"/>
          <path class="cls-2" d="M38.97,211.45l33.68-20.37c1.95-1.18,2.42-3.01,1.04-4.08l-31.57-24.34c-1.38-1.06-4.1-.97-6.06.21L2.38,183.25c-1.95,1.18-2.42,3.01-1.04,4.08l31.57,24.34c1.38,1.06,4.1.97,6.06-.21Z"/>
          <path class="cls-2" d="M38.94,210.95l33.58-20.31c1.94-1.18,2.41-3.01,1.03-4.07l-31.47-24.26c-1.38-1.06-4.09-.97-6.04.21L2.46,182.83c-1.94,1.18-2.41,3.01-1.03,4.07l31.47,24.26c1.38,1.06,4.09.97,6.04-.21Z"/>
          <path class="cls-2" d="M38.91,210.45l33.47-20.24c1.94-1.17,2.4-3,1.03-4.05l-31.37-24.18c-1.37-1.06-4.08-.96-6.02.21L2.55,182.42c-1.94,1.17-2.4,3-1.03,4.05l31.37,24.18c1.37,1.06,4.08.96,6.02-.21Z"/>
          <path class="cls-2" d="M38.88,209.94l33.36-20.18c1.93-1.17,2.39-2.99,1.03-4.04l-31.27-24.1c-1.37-1.05-4.07-.96-6,.21L2.63,182.01c-1.93,1.17-2.39,2.99-1.03,4.04l31.27,24.1c1.37,1.05,4.07.96,6-.21Z"/>
          <path class="cls-2" d="M38.85,209.44l33.26-20.11c1.93-1.16,2.39-2.98,1.02-4.03l-31.17-24.03c-1.36-1.05-4.05-.96-5.98.21L2.72,181.6c-1.93,1.16-2.39,2.98-1.02,4.03l31.17,24.03c1.36,1.05,4.05.96,5.98-.21Z"/>
          <path class="cls-2" d="M38.82,208.94l33.15-20.05c1.92-1.16,2.38-2.97,1.02-4.01l-31.07-23.95c-1.36-1.05-4.04-.95-5.96.21L2.81,181.18c-1.92,1.16-2.38,2.97-1.02,4.01l31.07,23.95c1.36,1.05,4.04.95,5.96-.21Z"/>
          <path class="cls-2" d="M38.79,208.44l33.04-19.98c1.91-1.16,2.37-2.96,1.02-4l-30.97-23.87c-1.35-1.04-4.03-.95-5.94.21L2.89,180.77c-1.91,1.16-2.37,2.96-1.02,4l30.97,23.87c1.35,1.04,4.03.95,5.94-.21Z"/>
          <path class="cls-2" d="M38.76,207.94l32.94-19.92c1.91-1.15,2.36-2.95,1.01-3.99l-30.87-23.8c-1.35-1.04-4.01-.95-5.92.21L2.98,180.36c-1.91,1.15-2.36,2.95-1.01,3.99l30.87,23.8c1.35,1.04,4.01.95,5.92-.21Z"/>
          <path class="cls-2" d="M38.73,207.44l32.83-19.86c1.9-1.15,2.36-2.94,1.01-3.98l-30.77-23.72c-1.35-1.04-4-.94-5.9.2L3.06,179.95c-1.9,1.15-2.36,2.94-1.01,3.98l30.77,23.72c1.35,1.04,4,.94,5.9-.2Z"/>
          <path class="cls-2" d="M38.7,206.94l32.73-19.79c1.89-1.15,2.35-2.93,1.01-3.96l-30.67-23.64c-1.34-1.03-3.99-.94-5.88.2L3.15,179.53c-1.89,1.15-2.35,2.93-1.01,3.96l30.67,23.64c1.34,1.03,3.99.94,5.88-.2Z"/>
          <path class="cls-2" d="M38.67,206.43l32.62-19.73c1.89-1.14,2.34-2.92,1-3.95l-30.57-23.57c-1.34-1.03-3.98-.94-5.86.2L3.23,179.12c-1.89,1.14-2.34,2.92-1,3.95l30.57,23.57c1.34,1.03,3.98.94,5.86-.2Z"/>
          <path class="cls-2" d="M38.64,205.93l32.51-19.66c1.88-1.14,2.33-2.91,1-3.94l-30.47-23.49c-1.33-1.03-3.96-.94-5.84.2L3.32,178.71c-1.88,1.14-2.33,2.91-1,3.94l30.47,23.49c1.33,1.03,3.96.94,5.84-.2Z"/>
          <path class="cls-2" d="M38.61,205.43l32.41-19.6c1.88-1.13,2.33-2.9,1-3.92l-30.38-23.41c-1.33-1.02-3.95-.93-5.83.2L3.4,178.3c-1.88,1.13-2.33,2.9-1,3.92l30.38,23.41c1.33,1.02,3.95.93,5.83-.2Z"/>
          <path class="cls-2" d="M38.58,204.93l32.3-19.53c1.87-1.13,2.32-2.89.99-3.91l-30.28-23.34c-1.32-1.02-3.94-.93-5.81.2L3.49,177.88c-1.87,1.13-2.32,2.89-.99,3.91l30.28,23.34c1.32,1.02,3.94.93,5.81-.2Z"/>
          <path class="cls-2" d="M38.55,204.43l32.19-19.47c1.86-1.13,2.31-2.88.99-3.9l-30.18-23.26c-1.32-1.02-3.92-.93-5.79.2L3.57,177.47c-1.86,1.13-2.31,2.88-.99,3.9l30.18,23.26c1.32,1.02,3.92.93,5.79-.2Z"/>
          <path class="cls-2" d="M38.52,203.93l32.09-19.41c1.86-1.12,2.3-2.87.99-3.89l-30.08-23.18c-1.31-1.01-3.91-.92-5.77.2L3.66,177.06c-1.86,1.12-2.3,2.87-.99,3.89l30.08,23.18c1.31,1.01,3.91.92,5.77-.2Z"/>
          <path class="cls-2" d="M38.49,203.43l31.98-19.34c1.85-1.12,2.29-2.86.98-3.87l-29.98-23.11c-1.31-1.01-3.9-.92-5.75.2l-31.98,19.34c-1.85,1.12-2.29,2.86-.98,3.87l29.98,23.11c1.31,1.01,3.9.92,5.75-.2Z"/>
          <path class="cls-2" d="M38.46,202.92l31.88-19.28c1.85-1.12,2.29-2.85.98-3.86l-29.88-23.03c-1.31-1.01-3.88-.92-5.73.2l-31.88,19.28c-1.85,1.12-2.29,2.85-.98,3.86l29.88,23.03c1.31,1.01,3.88.92,5.73-.2Z"/>
          <path class="cls-2" d="M38.43,202.42l31.77-19.21c1.84-1.11,2.28-2.84.98-3.85l-29.78-22.95c-1.3-1-3.87-.91-5.71.2l-31.77,19.21c-1.84,1.11-2.28,2.84-.98,3.85l29.78,22.95c1.3,1,3.87.91,5.71-.2Z"/>
          <path class="cls-2" d="M38.4,201.92l31.66-19.15c1.83-1.11,2.27-2.83.97-3.83l-29.68-22.88c-1.3-1-3.86-.91-5.69.2l-31.66,19.15c-1.83,1.11-2.27,2.83-.97,3.83l29.68,22.88c1.3,1,3.86.91,5.69-.2Z"/>
          <path class="cls-2" d="M38.37,201.42l31.56-19.08c1.83-1.1,2.26-2.82.97-3.82l-29.58-22.8c-1.29-1-3.85-.91-5.67.2l-31.56,19.08c-1.83,1.1-2.26,2.82-.97,3.82l29.58,22.8c1.29,1,3.85.91,5.67-.2Z"/>
          <path class="cls-2" d="M38.34,200.92l31.45-19.02c1.82-1.1,2.26-2.82.97-3.81l-29.48-22.72c-1.29-.99-3.83-.9-5.65.2l-31.45,19.02c-1.82,1.1-2.26,2.82-.97,3.81l29.48,22.72c1.29.99,3.83.9,5.65-.2Z"/>
          <path class="cls-2" d="M38.31,200.42l31.34-18.96c1.81-1.1,2.25-2.81.96-3.8l-29.38-22.65c-1.28-.99-3.82-.9-5.63.2l-31.34,18.96c-1.81,1.1-2.25,2.81-.96,3.8l29.38,22.65c1.28.99,3.82.9,5.63-.2Z"/>
          <path class="cls-2" d="M38.28,199.92l31.24-18.89c1.81-1.09,2.24-2.8.96-3.78l-29.28-22.57c-1.28-.99-3.81-.9-5.62.2l-31.24,18.89c-1.81,1.09-2.24,2.8-.96,3.78l29.28,22.57c1.28.99,3.81.9,5.62-.19Z"/>
          <path class="cls-2" d="M38.25,199.41l31.13-18.83c1.8-1.09,2.23-2.79.96-3.77l-29.18-22.49c-1.28-.98-3.79-.9-5.6.19l-31.13,18.83c-1.8,1.09-2.23,2.79-.96,3.77l29.18,22.49c1.28.98,3.79.9,5.6-.19Z"/>
          <path class="cls-2" d="M38.22,198.91l31.02-18.76c1.8-1.09,2.23-2.78.95-3.76l-29.08-22.42c-1.27-.98-3.78-.89-5.58.19l-31.02,18.76c-1.8,1.09-2.23,2.78-.95,3.76l29.08,22.42c1.27.98,3.78.89,5.58-.19Z"/>
          <path class="cls-2" d="M38.19,198.41l30.92-18.7c1.79-1.08,2.22-2.77.95-3.74l-28.98-22.34c-1.27-.98-3.77-.89-5.56.19l-30.92,18.7c-1.79,1.08-2.22,2.77-.95,3.74l28.98,22.34c1.27.98,3.77.89,5.56-.19Z"/>
          <path class="cls-2" d="M38.16,197.91l30.81-18.63c1.78-1.08,2.21-2.76.95-3.73l-28.88-22.26c-1.26-.97-3.76-.89-5.54.19l-30.81,18.63c-1.78,1.08-2.21,2.76-.95,3.73l28.88,22.26c1.26.97,3.76.89,5.54-.19Z"/>
          <path class="cls-2" d="M38.13,197.41l30.71-18.57c1.78-1.08,2.2-2.75.94-3.72l-28.78-22.18c-1.26-.97-3.74-.88-5.52.19l-30.71,18.57c-1.78,1.08-2.2,2.75-.94,3.72l28.78,22.18c1.26.97,3.74.88,5.52-.19Z"/>
          <path class="cls-2" d="M38.1,196.91l30.6-18.51c1.77-1.07,2.2-2.74.94-3.71l-28.68-22.11c-1.25-.97-3.73-.88-5.5.19l-30.6,18.51c-1.77,1.07-2.2,2.74-.94,3.71l28.68,22.11c1.25.97,3.73.88,5.5-.19Z"/>
          <path class="cls-2" d="M38.07,196.41l30.49-18.44c1.77-1.07,2.19-2.73.94-3.69l-28.58-22.03c-1.25-.96-3.72-.88-5.48.19l-30.49,18.44c-1.77,1.07-2.19,2.73-.94,3.69l28.58,22.03c1.25.96,3.72.88,5.48-.19Z"/>
          <path class="cls-2" d="M38.04,195.9l30.39-18.38c1.76-1.06,2.18-2.72.94-3.68l-28.48-21.95c-1.25-.96-3.7-.87-5.46.19l-30.39,18.38c-1.76,1.06-2.18,2.72-.94,3.68l28.48,21.95c1.25.96,3.7.87,5.46-.19Z"/>
          <path class="cls-2" d="M38.01,195.4l30.28-18.31c1.75-1.06,2.17-2.71.93-3.67l-28.38-21.88c-1.24-.96-3.69-.87-5.44.19l-30.28,18.31c-1.75,1.06-2.17,2.71-.93,3.67l28.38,21.88c1.24.96,3.69.87,5.44-.19Z"/>
          <path class="cls-2" d="M37.98,194.9l30.17-18.25c1.75-1.06,2.16-2.7.93-3.65l-28.28-21.8c-1.24-.95-3.68-.87-5.42.19l-30.17,18.25c-1.75,1.06-2.16,2.7-.93,3.65l28.28,21.8c1.24.95,3.68.87,5.42-.19Z"/>
          <path class="cls-2" d="M37.95,194.4l30.07-18.18c1.74-1.05,2.16-2.69.93-3.64l-28.18-21.72c-1.23-.95-3.66-.87-5.41.19l-30.07,18.18c-1.74,1.05-2.16,2.69-.93,3.64l28.18,21.72c1.23.95,3.66.87,5.41-.19Z"/>
          <path class="cls-2" d="M37.92,193.9l29.96-18.12c1.73-1.05,2.15-2.68.92-3.63l-28.08-21.65c-1.23-.95-3.65-.86-5.39.19l-29.96,18.12c-1.73,1.05-2.15,2.68-.92,3.63l28.08,21.65c1.23.95,3.65.86,5.39-.19Z"/>
          <path class="cls-2" d="M37.89,193.4l29.86-18.06c1.73-1.05,2.14-2.67.92-3.62l-27.98-21.57c-1.22-.94-3.64-.86-5.37.19l-29.86,18.06c-1.73,1.05-2.14,2.67-.92,3.62l27.98,21.57c1.22.94,3.64.86,5.37-.19Z"/>
          <path class="cls-2" d="M37.86,192.9l29.75-17.99c1.72-1.04,2.13-2.66.92-3.6l-27.88-21.49c-1.22-.94-3.63-.86-5.35.19l-29.75,17.99c-1.72,1.04-2.13,2.66-.92,3.6l27.88,21.49c1.22.94,3.63.86,5.35-.19Z"/>
          <path class="cls-2" d="M37.83,192.39l29.64-17.93c1.72-1.04,2.13-2.65.91-3.59l-27.78-21.42c-1.21-.94-3.61-.85-5.33.19l-29.64,17.93c-1.72,1.04-2.13,2.65-.91,3.59l27.78,21.42c1.21.94,3.61.85,5.33-.18Z"/>
          <path class="cls-2" d="M37.8,191.89l29.54-17.86c1.71-1.03,2.12-2.64.91-3.58l-27.68-21.34c-1.21-.93-3.6-.85-5.31.18l-29.54,17.86c-1.71,1.03-2.12,2.64-.91,3.58l27.68,21.34c1.21.93,3.6.85,5.31-.18Z"/>
          <path class="cls-2" d="M37.77,191.39l29.43-17.8c1.7-1.03,2.11-2.63.91-3.56l-27.59-21.26c-1.21-.93-3.59-.85-5.29.18l-29.43,17.8c-1.7,1.03-2.11,2.63-.91,3.56l27.59,21.26c1.21.93,3.59.85,5.29-.18Z"/>
          <path class="cls-2" d="M37.74,190.89l29.32-17.73c1.7-1.03,2.1-2.62.9-3.55l-27.49-21.19c-1.2-.93-3.57-.84-5.27.18l-29.32,17.73c-1.7,1.03-2.1,2.62-.9,3.55l27.49,21.19c1.2.93,3.57.84,5.27-.18Z"/>
          <path class="cls-2" d="M37.71,190.39l29.22-17.67c1.69-1.02,2.1-2.62.9-3.54l-27.39-21.11c-1.2-.92-3.56-.84-5.25.18l-29.22,17.67c-1.69,1.02-2.1,2.62-.9,3.54l27.39,21.11c1.2.92,3.56.84,5.25-.18Z"/>
          <path class="cls-2" d="M37.68,189.89l29.11-17.61c1.69-1.02,2.09-2.61.9-3.53l-27.29-21.03c-1.19-.92-3.55-.84-5.23.18l-29.11,17.61c-1.69,1.02-2.09,2.61-.9,3.53l27.29,21.03c1.19.92,3.55.84,5.23-.18Z"/>
          <path class="cls-2" d="M37.65,189.39l29-17.54c1.68-1.02,2.08-2.6.89-3.51l-27.19-20.96c-1.19-.92-3.53-.83-5.21.18l-29,17.54c-1.68,1.02-2.08,2.6-.89,3.51l27.19,20.96c1.19.92,3.53.83,5.21-.18Z"/>
          <path class="cls-2" d="M37.62,188.88l28.9-17.48c1.67-1.01,2.07-2.59.89-3.5l-27.09-20.88c-1.18-.91-3.52-.83-5.2.18l-28.9,17.48c-1.67,1.01-2.07,2.59-.89,3.5l27.09,20.88c1.18.91,3.52.83,5.2-.18Z"/>
        </g>
        <path class="cls-3" d="M37.62,188.88l28.9-17.48c1.67-1.01,2.07-2.59.89-3.5l-27.09-20.88c-1.18-.91-3.52-.83-5.2.18l-28.9,17.48c-1.67,1.01-2.07,2.59-.89,3.5l27.09,20.88c1.18.91,3.52.83,5.2-.18Z"/>
        <path class="cls-2" d="M62.25,170.71l-22.61-17.43c-.99-.76-2.94-.69-4.34.15l-24.12,14.59c-.38.23-.68.5-.9.78-.77-.78-.39-1.98.92-2.77l24.12-14.59c1.4-.84,3.35-.91,4.34-.15l22.61,17.43c.72.55.73,1.4.16,2.14-.05-.05-.11-.1-.17-.15Z"/>
        <path class="cls-1" d="M6.1,165.8l27.09,20.88c1.18.91,3.52.83,5.2-.18l28.9-17.48c.25-.15.46-.31.65-.48.43.9-.1,2.05-1.42,2.86l-28.9,17.48c-1.67,1.01-4.01,1.09-5.2.18l-27.09-20.88c-1.01-.78-.86-2.04.24-3.02.11.24.29.45.53.64Z"/>
      </g>
      <g>
        <g>
          <path class="cls-2" d="M446.75,215.1l-36.41-19.06c-2.11-1.1-2.71-2.99-1.34-4.18l31.33-27.39c1.37-1.2,4.22-1.27,6.32-.17l36.41,19.06c2.11,1.1,2.71,2.99,1.34,4.18l-31.33,27.39c-1.37,1.2-4.22,1.27-6.32.17Z"/>
          <path class="cls-2" d="M446.75,214.59l-36.3-19c-2.1-1.1-2.7-2.98-1.34-4.17l31.23-27.31c1.37-1.19,4.2-1.27,6.3-.17l36.3,19c2.1,1.1,2.7,2.98,1.34,4.17l-31.23,27.31c-1.37,1.19-4.2,1.27-6.3.17Z"/>
          <path class="cls-2" d="M446.75,214.07l-36.19-18.94c-2.1-1.1-2.7-2.97-1.33-4.16l31.14-27.22c1.36-1.19,4.19-1.27,6.28-.17l36.19,18.94c2.1,1.1,2.7,2.97,1.33,4.16l-31.14,27.22c-1.36,1.19-4.19,1.27-6.28.17Z"/>
          <path class="cls-2" d="M446.74,213.56l-36.07-18.88c-2.09-1.09-2.69-2.96-1.33-4.14l31.04-27.14c1.36-1.19,4.18-1.26,6.26-.17l36.07,18.88c2.09,1.09,2.69,2.96,1.33,4.14l-31.04,27.14c-1.36,1.19-4.18,1.26-6.26.17Z"/>
          <path class="cls-2" d="M446.74,213.04l-35.96-18.82c-2.08-1.09-2.68-2.95-1.33-4.13l30.94-27.06c1.35-1.18,4.16-1.26,6.25-.17l35.96,18.82c2.08,1.09,2.68,2.95,1.33,4.13l-30.94,27.06c-1.35,1.18-4.16,1.26-6.25.17Z"/>
          <path class="cls-2" d="M446.74,212.53l-35.85-18.76c-2.08-1.09-2.67-2.94-1.32-4.12l30.85-26.97c1.35-1.18,4.15-1.25,6.23-.17l35.85,18.76c2.08,1.09,2.67,2.94,1.32,4.12l-30.85,26.97c-1.35,1.18-4.15,1.25-6.23.17Z"/>
          <path class="cls-2" d="M446.74,212.01l-35.74-18.7c-2.07-1.08-2.66-2.93-1.32-4.11l30.75-26.89c1.34-1.18,4.14-1.25,6.21-.17l35.74,18.7c2.07,1.08,2.66,2.93,1.32,4.11l-30.75,26.89c-1.34,1.18-4.14,1.25-6.21.17Z"/>
          <path class="cls-2" d="M446.74,211.5l-35.62-18.64c-2.06-1.08-2.65-2.92-1.31-4.09l30.65-26.8c1.34-1.17,4.12-1.25,6.19-.17l35.62,18.64c2.06,1.08,2.65,2.92,1.31,4.09l-30.65,26.8c-1.34,1.17-4.12,1.25-6.19.17Z"/>
          <path class="cls-2" d="M446.74,210.98l-35.51-18.58c-2.06-1.08-2.65-2.91-1.31-4.08l30.55-26.72c1.34-1.17,4.11-1.24,6.17-.17l35.51,18.58c2.06,1.08,2.65,2.91,1.31,4.08l-30.55,26.72c-1.34,1.17-4.11,1.24-6.17.17Z"/>
          <path class="cls-2" d="M446.74,210.47l-35.4-18.53c-2.05-1.07-2.64-2.9-1.31-4.07l30.46-26.63c1.33-1.16,4.1-1.24,6.15-.17l35.4,18.53c2.05,1.07,2.64,2.9,1.31,4.07l-30.46,26.63c-1.33,1.16-4.1,1.24-6.15.17Z"/>
          <path class="cls-2" d="M446.74,209.95l-35.29-18.47c-2.04-1.07-2.63-2.89-1.3-4.05l30.36-26.55c1.33-1.16,4.08-1.24,6.13-.17l35.29,18.47c2.04,1.07,2.63,2.89,1.3,4.05l-30.36,26.55c-1.33,1.16-4.08,1.24-6.13.17Z"/>
          <path class="cls-2" d="M446.74,209.44l-35.17-18.41c-2.04-1.07-2.62-2.88-1.3-4.04l30.26-26.46c1.32-1.16,4.07-1.23,6.11-.17l35.17,18.41c2.04,1.07,2.62,2.88,1.3,4.04l-30.26,26.46c-1.32,1.16-4.07,1.23-6.11.17Z"/>
          <path class="cls-2" d="M446.73,208.93l-35.06-18.35c-2.03-1.06-2.61-2.87-1.29-4.03l30.17-26.38c1.32-1.15,4.06-1.23,6.09-.16l35.06,18.35c2.03,1.06,2.61,2.87,1.29,4.03l-30.17,26.38c-1.32,1.15-4.06,1.23-6.09.16Z"/>
          <path class="cls-2" d="M446.73,208.41l-34.95-18.29c-2.02-1.06-2.6-2.87-1.29-4.02l30.07-26.29c1.31-1.15,4.05-1.22,6.07-.16l34.95,18.29c2.02,1.06,2.6,2.87,1.29,4.02l-30.07,26.29c-1.31,1.15-4.05,1.22-6.07.16Z"/>
          <path class="cls-2" d="M446.73,207.9l-34.83-18.23c-2.02-1.06-2.6-2.86-1.28-4l29.97-26.21c1.31-1.15,4.03-1.22,6.05-.16l34.83,18.23c2.02,1.06,2.59,2.86,1.28,4l-29.97,26.21c-1.31,1.15-4.03,1.22-6.05.16Z"/>
          <path class="cls-2" d="M446.73,207.38l-34.72-18.17c-2.01-1.05-2.59-2.85-1.28-3.99l29.88-26.12c1.31-1.14,4.02-1.22,6.03-.16l34.72,18.17c2.01,1.05,2.59,2.85,1.28,3.99l-29.88,26.12c-1.31,1.14-4.02,1.22-6.03.16Z"/>
          <path class="cls-2" d="M446.73,206.87l-34.61-18.11c-2-1.05-2.58-2.84-1.28-3.98l29.78-26.04c1.3-1.14,4.01-1.21,6.01-.16l34.61,18.11c2,1.05,2.58,2.84,1.28,3.98l-29.78,26.04c-1.3,1.14-4.01,1.21-6.01.16Z"/>
          <path class="cls-2" d="M446.73,206.35l-34.5-18.05c-2-1.05-2.57-2.83-1.27-3.96l29.68-25.95c1.3-1.13,3.99-1.21,5.99-.16l34.5,18.05c2,1.05,2.57,2.83,1.27,3.96l-29.68,25.95c-1.3,1.13-3.99,1.21-5.99.16Z"/>
          <path class="cls-2" d="M446.73,205.84l-34.38-17.99c-1.99-1.04-2.56-2.82-1.27-3.95l29.58-25.87c1.29-1.13,3.98-1.2,5.97-.16l34.38,17.99c1.99,1.04,2.56,2.82,1.27,3.95l-29.58,25.87c-1.29,1.13-3.98,1.2-5.97.16Z"/>
          <path class="cls-2" d="M446.73,205.32l-34.27-17.94c-1.98-1.04-2.55-2.81-1.26-3.94l29.49-25.78c1.29-1.13,3.97-1.2,5.95-.16l34.27,17.94c1.98,1.04,2.55,2.81,1.26,3.94l-29.49,25.78c-1.29,1.13-3.97,1.2-5.95.16Z"/>
          <path class="cls-2" d="M446.73,204.81l-34.16-17.88c-1.98-1.04-2.54-2.8-1.26-3.92l29.39-25.7c1.28-1.12,3.95-1.2,5.93-.16l34.16,17.88c1.98,1.03,2.54,2.8,1.26,3.92l-29.39,25.7c-1.28,1.12-3.95,1.2-5.93.16Z"/>
          <path class="cls-2" d="M446.73,204.29l-34.04-17.82c-1.97-1.03-2.54-2.79-1.26-3.91l29.29-25.61c1.28-1.12,3.94-1.19,5.91-.16l34.04,17.82c1.97,1.03,2.54,2.79,1.26,3.91l-29.29,25.61c-1.28,1.12-3.94,1.19-5.91.16Z"/>
          <path class="cls-2" d="M446.72,203.78l-33.93-17.76c-1.96-1.03-2.53-2.78-1.25-3.9l29.2-25.53c1.28-1.12,3.93-1.19,5.89-.16l33.93,17.76c1.96,1.03,2.53,2.78,1.25,3.9l-29.2,25.53c-1.28,1.12-3.93,1.19-5.89.16Z"/>
          <path class="cls-2" d="M446.72,203.26l-33.82-17.7c-1.96-1.02-2.52-2.77-1.25-3.89l29.1-25.44c1.27-1.11,3.91-1.18,5.87-.16l33.82,17.7c1.96,1.02,2.52,2.77,1.25,3.89l-29.1,25.44c-1.27,1.11-3.91,1.18-5.87.16Z"/>
          <path class="cls-2" d="M446.72,202.75l-33.71-17.64c-1.95-1.02-2.51-2.76-1.24-3.87l29-25.36c1.27-1.11,3.9-1.18,5.85-.16l33.71,17.64c1.95,1.02,2.51,2.76,1.24,3.87l-29,25.36c-1.27,1.11-3.9,1.18-5.85.16Z"/>
          <path class="cls-2" d="M446.72,202.23l-33.59-17.58c-1.95-1.02-2.5-2.75-1.24-3.86l28.9-25.27c1.26-1.1,3.89-1.18,5.83-.16l33.59,17.58c1.95,1.02,2.5,2.75,1.24,3.86l-28.9,25.27c-1.26,1.1-3.89,1.18-5.83.16Z"/>
          <path class="cls-2" d="M446.72,201.72l-33.48-17.52c-1.94-1.01-2.49-2.75-1.23-3.85l28.81-25.19c1.26-1.1,3.88-1.17,5.81-.16l33.48,17.52c1.94,1.01,2.49,2.75,1.23,3.85l-28.81,25.19c-1.26,1.1-3.88,1.17-5.81.16Z"/>
          <path class="cls-2" d="M446.72,201.2l-33.37-17.46c-1.93-1.01-2.49-2.74-1.23-3.83l28.71-25.1c1.26-1.1,3.86-1.17,5.79-.16l33.37,17.46c1.93,1.01,2.49,2.74,1.23,3.83l-28.71,25.1c-1.26,1.1-3.86,1.17-5.79.16Z"/>
          <path class="cls-2" d="M446.72,200.69l-33.26-17.4c-1.93-1.01-2.48-2.73-1.23-3.82l28.61-25.02c1.25-1.09,3.85-1.16,5.78-.16l33.26,17.4c1.93,1.01,2.48,2.73,1.23,3.82l-28.61,25.02c-1.25,1.09-3.85,1.16-5.78.16Z"/>
          <path class="cls-2" d="M446.72,200.17l-33.14-17.34c-1.92-1-2.47-2.72-1.22-3.81l28.52-24.93c1.25-1.09,3.84-1.16,5.76-.16l33.14,17.34c1.92,1,2.47,2.72,1.22,3.81l-28.52,24.93c-1.25,1.09-3.84,1.16-5.76.16Z"/>
          <path class="cls-2" d="M446.72,199.66l-33.03-17.29c-1.91-1-2.46-2.71-1.22-3.79l28.42-24.85c1.24-1.09,3.82-1.16,5.74-.16l33.03,17.29c1.91,1,2.46,2.71,1.22,3.79l-28.42,24.85c-1.24,1.09-3.82,1.16-5.74.16Z"/>
          <path class="cls-2" d="M446.71,199.15l-32.92-17.23c-1.91-1-2.45-2.7-1.21-3.78l28.32-24.76c1.24-1.08,3.81-1.15,5.72-.15l32.92,17.23c1.91,1,2.45,2.7,1.21,3.78l-28.32,24.76c-1.24,1.08-3.81,1.15-5.72.15Z"/>
          <path class="cls-2" d="M446.71,198.63l-32.8-17.17c-1.9-.99-2.44-2.69-1.21-3.77l28.23-24.68c1.23-1.08,3.8-1.15,5.7-.15l32.8,17.17c1.9.99,2.44,2.69,1.21,3.77l-28.23,24.68c-1.23,1.08-3.8,1.15-5.7.15Z"/>
          <path class="cls-2" d="M446.71,198.12l-32.69-17.11c-1.89-.99-2.44-2.68-1.21-3.76l28.13-24.59c1.23-1.08,3.78-1.14,5.68-.15l32.69,17.11c1.89.99,2.44,2.68,1.21,3.76l-28.13,24.59c-1.23,1.08-3.78,1.14-5.68.15Z"/>
          <path class="cls-2" d="M446.71,197.6l-32.58-17.05c-1.89-.99-2.43-2.67-1.2-3.74l28.03-24.51c1.23-1.07,3.77-1.14,5.66-.15l32.58,17.05c1.89.99,2.43,2.67,1.2,3.74l-28.03,24.51c-1.23,1.07-3.77,1.14-5.66.15Z"/>
          <path class="cls-2" d="M446.71,197.09l-32.47-16.99c-1.88-.98-2.42-2.66-1.2-3.73l27.93-24.42c1.22-1.07,3.76-1.14,5.64-.15l32.47,16.99c1.88.98,2.42,2.66,1.2,3.73l-27.93,24.42c-1.22,1.07-3.76,1.14-5.64.15Z"/>
          <path class="cls-2" d="M446.71,196.57l-32.35-16.93c-1.87-.98-2.41-2.65-1.19-3.72l27.84-24.34c1.22-1.06,3.75-1.13,5.62-.15l32.35,16.93c1.87.98,2.41,2.65,1.19,3.72l-27.84,24.34c-1.22,1.06-3.75,1.13-5.62.15Z"/>
          <path class="cls-2" d="M446.71,196.06l-32.24-16.87c-1.87-.98-2.4-2.64-1.19-3.7l27.74-24.25c1.21-1.06,3.73-1.13,5.6-.15l32.24,16.87c1.87.98,2.4,2.64,1.19,3.7l-27.74,24.26c-1.21,1.06-3.73,1.13-5.6.15Z"/>
          <path class="cls-2" d="M446.71,195.54l-32.13-16.81c-1.86-.97-2.39-2.63-1.18-3.69l27.64-24.17c1.21-1.06,3.72-1.12,5.58-.15l32.13,16.81c1.86.97,2.39,2.63,1.18,3.69l-27.64,24.17c-1.21,1.06-3.72,1.12-5.58.15Z"/>
          <path class="cls-2" d="M446.71,195.03l-32.01-16.75c-1.85-.97-2.39-2.63-1.18-3.68l27.55-24.09c1.2-1.05,3.71-1.12,5.56-.15l32.01,16.75c1.85.97,2.38,2.63,1.18,3.68l-27.55,24.09c-1.2,1.05-3.71,1.12-5.56.15Z"/>
          <path class="cls-2" d="M446.71,194.51l-31.9-16.7c-1.85-.97-2.38-2.62-1.18-3.67l27.45-24c1.2-1.05,3.69-1.12,5.54-.15l31.9,16.7c1.85.97,2.38,2.62,1.18,3.67l-27.45,24c-1.2,1.05-3.69,1.12-5.54.15Z"/>
          <path class="cls-2" d="M446.7,194l-31.79-16.64c-1.84-.96-2.37-2.61-1.17-3.65l27.35-23.92c1.2-1.05,3.68-1.11,5.52-.15l31.79,16.64c1.84.96,2.37,2.61,1.17,3.65l-27.35,23.92c-1.2,1.05-3.68,1.11-5.52.15Z"/>
          <path class="cls-2" d="M446.7,193.48l-31.68-16.58c-1.83-.96-2.36-2.6-1.17-3.64l27.26-23.83c1.19-1.04,3.67-1.11,5.5-.15l31.68,16.58c1.83.96,2.36,2.6,1.17,3.64l-27.26,23.83c-1.19,1.04-3.67,1.11-5.5.15Z"/>
          <path class="cls-2" d="M446.7,192.97l-31.56-16.52c-1.83-.96-2.35-2.59-1.16-3.63l27.16-23.75c1.19-1.04,3.65-1.1,5.48-.15l31.56,16.52c1.83.96,2.35,2.59,1.16,3.63l-27.16,23.75c-1.19,1.04-3.65,1.1-5.48.15Z"/>
          <path class="cls-2" d="M446.7,192.45l-31.45-16.46c-1.82-.95-2.34-2.58-1.16-3.61l27.06-23.66c1.18-1.03,3.64-1.1,5.46-.15l31.45,16.46c1.82.95,2.34,2.58,1.16,3.61l-27.06,23.66c-1.18,1.03-3.64,1.1-5.46.15Z"/>
          <path class="cls-2" d="M446.7,191.94l-31.34-16.4c-1.81-.95-2.33-2.57-1.16-3.6l26.96-23.58c1.18-1.03,3.63-1.1,5.44-.15l31.34,16.4c1.81.95,2.33,2.57,1.16,3.6l-26.96,23.58c-1.18,1.03-3.63,1.1-5.44.15Z"/>
          <path class="cls-2" d="M446.7,191.42l-31.22-16.34c-1.81-.95-2.33-2.56-1.15-3.59l26.87-23.49c1.17-1.03,3.61-1.09,5.42-.15l31.22,16.34c1.81.95,2.33,2.56,1.15,3.59l-26.87,23.49c-1.17,1.03-3.61,1.09-5.42.15Z"/>
          <path class="cls-2" d="M446.7,190.91l-31.11-16.28c-1.8-.94-2.32-2.55-1.15-3.57l26.77-23.41c1.17-1.02,3.6-1.09,5.4-.15l31.11,16.28c1.8.94,2.32,2.55,1.15,3.57l-26.77,23.41c-1.17,1.02-3.6,1.09-5.4.15Z"/>
          <path class="cls-2" d="M446.7,190.39l-31-16.22c-1.79-.94-2.31-2.54-1.14-3.56l26.67-23.32c1.17-1.02,3.59-1.09,5.38-.15l31,16.22c1.79.94,2.31,2.54,1.14,3.56l-26.67,23.32c-1.17,1.02-3.59,1.09-5.38.15Z"/>
          <path class="cls-2" d="M446.7,189.88l-30.89-16.16c-1.79-.94-2.3-2.53-1.14-3.55l26.58-23.24c1.16-1.02,3.58-1.08,5.36-.15l30.89,16.16c1.79.94,2.3,2.53,1.14,3.55l-26.58,23.24c-1.16,1.02-3.58,1.08-5.36.15Z"/>
          <path class="cls-2" d="M446.69,189.37l-30.77-16.11c-1.78-.93-2.29-2.52-1.14-3.54l26.48-23.15c1.16-1.01,3.56-1.08,5.34-.14l30.77,16.11c1.78.93,2.29,2.52,1.14,3.54l-26.48,23.15c-1.16,1.01-3.56,1.08-5.34.14Z"/>
          <path class="cls-2" d="M446.69,188.85l-30.66-16.05c-1.78-.93-2.28-2.51-1.13-3.52l26.38-23.07c1.15-1.01,3.55-1.07,5.32-.14l30.66,16.05c1.78.93,2.28,2.51,1.13,3.52l-26.38,23.07c-1.15,1.01-3.55,1.07-5.32.14Z"/>
        </g>
        <path class="cls-3" d="M446.69,188.85l-30.66-16.05c-1.78-.93-2.28-2.51-1.13-3.52l26.38-23.07c1.15-1.01,3.55-1.07,5.32-.14l30.66,16.05c1.78.93,2.28,2.51,1.13,3.52l-26.38,23.07c-1.15,1.01-3.55,1.07-5.32.14Z"/>
        <path class="cls-2" d="M420.35,171.82l22.02-19.25c.96-.84,2.96-.9,4.44-.12l25.59,13.39c.41.21.73.47.97.74.73-.84.27-2.05-1.11-2.77l-25.59-13.39c-1.48-.78-3.48-.72-4.44.12l-22.02,19.25c-.7.61-.66,1.47-.03,2.2.05-.06.11-.11.17-.17Z"/>
        <path class="cls-1" d="M477.46,163.25l-26.38,23.07c-1.15,1.01-3.55,1.07-5.32.14l-30.66-16.05c-.26-.14-.49-.29-.7-.45-.38.95.23,2.09,1.63,2.83l30.66,16.05c1.78.93,4.17.86,5.32-.14l26.38-23.07c.98-.86.75-2.14-.43-3.07-.1.25-.26.48-.5.69Z"/>
      </g>
      <g>
        <path class="cls-3" d="M225.14,190.3l-1.44,1.39c-2.63,2.55-6.87,2.47-9.42-.16L41.41,12.67c-2.55-2.63-2.47-6.87.16-9.42l1.44-1.39c2.63-2.55,6.87-2.47,9.42.16l172.88,178.85c2.55,2.63,2.47,6.87-.16,9.42Z"/>
        <path class="cls-2" d="M225.19,187.47l-1.44,1.39c-2.63,2.55-6.87,2.47-9.42-.16L41.46,9.85c-.92-.95-1.49-2.11-1.73-3.33-.5,2.13.06,4.47,1.68,6.15l172.88,178.85c2.55,2.63,6.79,2.71,9.42.16l1.44-1.39c1.68-1.63,2.32-3.94,1.89-6.09-.28,1.21-.89,2.35-1.84,3.27Z"/>
        <g>
          <polygon class="cls-2" points="164.08 139.59 172.05 147.83 178.87 132.83 170.9 124.59 164.08 139.59"/>
          <polygon class="cls-2" points="149.77 124.79 157.74 133.03 164.56 118.03 156.59 109.79 149.77 124.79"/>
          <polygon class="cls-2" points="192.7 169.19 200.66 177.43 207.48 162.44 199.52 154.2 192.7 169.19"/>
          <polygon class="cls-2" points="135.47 109.98 143.43 118.22 150.25 103.23 142.29 94.99 135.47 109.98"/>
          <path class="cls-2" d="M207.01,184l7.28,7.53c.23.23.47.44.72.63l6.79-14.92-7.96-8.24-6.82,14.99Z"/>
          <path class="cls-2" d="M225.22,190.21c1.17-1.17,1.81-2.68,1.92-4.23l-1.92,4.23Z"/>
          <polygon class="cls-2" points="178.39 154.39 186.35 162.63 193.17 147.64 185.21 139.4 178.39 154.39"/>
          <polygon class="cls-2" points="49.62 21.17 57.58 29.41 64.4 14.41 56.44 6.17 49.62 21.17"/>
          <polygon class="cls-2" points="63.93 35.97 71.89 44.21 78.71 29.22 70.74 20.98 63.93 35.97"/>
          <polygon class="cls-2" points="121.16 95.18 129.12 103.42 135.94 88.43 127.98 80.19 121.16 95.18"/>
          <path class="cls-2" d="M43,1.86l-1.44,1.39c-2.63,2.55-2.71,6.79-.16,9.42l1.87,1.93L49.76.35c-2.28-.76-4.91-.27-6.75,1.52Z"/>
          <polygon class="cls-2" points="78.23 50.77 86.2 59.01 93.02 44.02 85.05 35.78 78.23 50.77"/>
          <polygon class="cls-2" points="106.85 80.38 114.81 88.62 121.63 73.62 113.67 65.38 106.85 80.38"/>
          <polygon class="cls-2" points="92.54 65.58 100.51 73.82 107.32 58.82 99.36 50.58 92.54 65.58"/>
        </g>
        <path class="cls-1" d="M45.39.39c.85.34,1.65.85,2.33,1.55l172.88,178.85c2.55,2.63,2.47,6.87-.16,9.42l-1.44,1.39c-.7.68-1.52,1.16-2.38,1.47,2.36.93,5.16.48,7.09-1.39l1.44-1.39c2.63-2.55,2.71-6.79.16-9.42L52.43,2.02c-1.87-1.93-4.65-2.48-7.04-1.63Z"/>
      </g>
      <g>
        <path class="cls-3" d="M263.3,190.91l-.94,1.76c-1.72,3.23-5.78,4.47-9.01,2.75L33.8,78.5c-3.23-1.72-4.47-5.78-2.75-9.01l.94-1.76c1.72-3.23,5.78-4.47,9.01-2.75l219.55,116.92c3.23,1.72,4.47,5.78,2.75,9.01Z"/>
        <path class="cls-2" d="M262.48,188.2l-.94,1.76c-1.72,3.23-5.78,4.47-9.01,2.75L32.97,75.8c-1.17-.62-2.07-1.55-2.67-2.63.18,2.18,1.43,4.24,3.5,5.34l219.55,116.92c3.23,1.72,7.29.49,9.01-2.75l.94-1.76c1.1-2.07.99-4.47-.08-6.38.1,1.23-.13,2.51-.75,3.68Z"/>
        <g>
          <polygon class="cls-2" points="189.59 161.47 199.71 166.85 201.58 150.49 191.46 145.1 189.59 161.47"/>
          <polygon class="cls-2" points="171.42 151.79 181.54 157.18 183.41 140.81 173.29 135.43 171.42 151.79"/>
          <polygon class="cls-2" points="225.94 180.82 236.05 186.21 237.92 169.84 227.81 164.46 225.94 180.82"/>
          <polygon class="cls-2" points="153.25 142.12 163.37 147.5 165.24 131.14 155.12 125.75 153.25 142.12"/>
          <path class="cls-2" d="M244.11,190.5l9.24,4.92c.29.15.58.27.88.38l1.86-16.28-10.11-5.39-1.87,16.37Z"/>
          <path class="cls-2" d="M263.35,190.8c.75-1.47.9-3.11.53-4.61l-.53,4.61Z"/>
          <polygon class="cls-2" points="207.77 171.15 217.88 176.53 219.75 160.17 209.64 154.78 207.77 171.15"/>
          <polygon class="cls-2" points="44.22 84.06 54.34 89.44 56.21 73.08 46.09 67.69 44.22 84.06"/>
          <polygon class="cls-2" points="62.39 93.73 72.51 99.12 74.38 82.75 64.27 77.37 62.39 93.73"/>
          <polygon class="cls-2" points="135.08 132.44 145.19 137.82 147.06 121.46 136.95 116.07 135.08 132.44"/>
          <path class="cls-2" d="M31.99,67.73l-.94,1.76c-1.72,3.23-.49,7.29,2.75,9.01l2.37,1.26,1.78-15.56c-2.41-.02-4.75,1.26-5.96,3.52Z"/>
          <polygon class="cls-2" points="80.57 103.41 90.68 108.79 92.55 92.43 82.44 87.04 80.57 103.41"/>
          <polygon class="cls-2" points="116.91 122.76 127.02 128.15 128.89 111.78 118.78 106.4 116.91 122.76"/>
          <polygon class="cls-2" points="98.74 113.09 108.85 118.47 110.72 102.11 100.61 96.72 98.74 113.09"/>
        </g>
        <path class="cls-1" d="M33.8,65.59c.92.06,1.83.3,2.69.76l219.55,116.92c3.23,1.72,4.47,5.78,2.75,9.01l-.94,1.76c-.46.86-1.08,1.57-1.81,2.13,2.53.16,5.05-1.13,6.32-3.51l.94-1.76c1.72-3.23.49-7.29-2.75-9.01L41,64.98c-2.37-1.26-5.19-.93-7.2.62Z"/>
      </g>
    </g>
  </g>
</svg>