<?xml version="1.0" encoding="UTF-8"?>
<svg id="Layer_2" data-name="Layer 2" xmlns="http://www.w3.org/2000/svg" viewBox="0 0 144.81 132.74">
  <defs>
    <style>
      .cls-1 {
        fill: #8b5b3c;
      }

      .cls-1, .cls-2, .cls-3 {
        stroke-width: 0px;
      }

      .cls-2 {
        fill: #583115;
      }

      .cls-3 {
        fill: #724221;
      }
    </style>
  </defs>
  <g id="Layer_7" data-name="Layer 7">
    <g>
      <g>
        <path class="cls-2" d="M72.5,131.27L3.91,95.37c-3.97-2.08-5.11-5.62-2.53-7.88l59.02-51.6c2.58-2.26,7.94-2.4,11.91-.32l68.59,35.9c3.97,2.08,5.11,5.62,2.53,7.88l-59.02,51.6c-2.58,2.26-7.94,2.4-11.91.32Z"/>
        <path class="cls-2" d="M72.5,130.3L4.12,94.51c-3.96-2.07-5.09-5.61-2.52-7.86l58.83-51.44c2.57-2.25,7.92-2.39,11.87-.32l68.38,35.78c3.96,2.07,5.09,5.61,2.52,7.86l-58.83,51.44c-2.57,2.25-7.92,2.39-11.87.32Z"/>
        <path class="cls-2" d="M72.5,129.33L4.33,93.65c-3.95-2.07-5.08-5.59-2.51-7.83l58.65-51.28c2.56-2.24,7.89-2.39,11.84-.32l68.16,35.67c3.95,2.07,5.08,5.59,2.51,7.83l-58.65,51.28c-2.56,2.24-7.89,2.39-11.84.32Z"/>
        <path class="cls-2" d="M72.49,128.36L4.54,92.8c-3.93-2.06-5.06-5.57-2.51-7.81l58.47-51.12c2.56-2.23,7.87-2.38,11.8-.32l67.95,35.56c3.93,2.06,5.06,5.57,2.51,7.81l-58.47,51.12c-2.56,2.23-7.87,2.38-11.8.32Z"/>
        <path class="cls-2" d="M72.49,127.39L4.75,91.94c-3.92-2.05-5.05-5.55-2.5-7.78l58.28-50.96c2.55-2.23,7.84-2.37,11.76-.32l67.74,35.45c3.92,2.05,5.05,5.55,2.5,7.78l-58.28,50.96c-2.55,2.23-7.84,2.37-11.76.32Z"/>
        <path class="cls-2" d="M72.49,126.42L4.96,91.08c-3.91-2.05-5.03-5.54-2.49-7.76l58.1-50.8c2.54-2.22,7.82-2.36,11.73-.32l67.53,35.34c3.91,2.05,5.03,5.54,2.49,7.76l-58.1,50.8c-2.54,2.22-7.82,2.36-11.73.32Z"/>
        <path class="cls-2" d="M72.49,125.45L5.17,90.22c-3.9-2.04-5.01-5.52-2.48-7.73L60.61,31.84c2.53-2.21,7.79-2.36,11.69-.32l67.31,35.23c3.9,2.04,5.01,5.52,2.48,7.73l-57.92,50.64c-2.53,2.21-7.79,2.36-11.69.32Z"/>
        <path class="cls-2" d="M72.49,124.48L5.38,89.36c-3.89-2.03-5-5.5-2.47-7.71L60.65,31.17c2.52-2.21,7.77-2.35,11.65-.32l67.1,35.12c3.89,2.03,5,5.5,2.47,7.71l-57.74,50.48c-2.52,2.21-7.77,2.35-11.65.32Z"/>
        <path class="cls-2" d="M72.48,123.51L5.6,88.5c-3.87-2.03-4.98-5.49-2.47-7.68L60.68,30.5c2.52-2.2,7.74-2.34,11.62-.31l66.89,35.01c3.87,2.03,4.98,5.49,2.47,7.68l-57.55,50.32c-2.52,2.2-7.74,2.34-11.62.31Z"/>
        <path class="cls-2" d="M72.48,122.54L5.81,87.65c-3.86-2.02-4.97-5.47-2.46-7.66L60.72,29.82c2.51-2.19,7.72-2.33,11.58-.31l66.68,34.9c3.86,2.02,4.97,5.47,2.46,7.66l-57.37,50.16c-2.51,2.19-7.72,2.33-11.58.31Z"/>
        <path class="cls-2" d="M72.48,121.57L6.02,86.79c-3.85-2.01-4.95-5.45-2.45-7.64L60.75,29.15c2.5-2.19,7.69-2.33,11.54-.31l66.46,34.78c3.85,2.01,4.95,5.45,2.45,7.64l-57.19,50c-2.5,2.19-7.69,2.33-11.54.31Z"/>
        <path class="cls-2" d="M72.48,120.6L6.23,85.93c-3.84-2.01-4.94-5.43-2.44-7.61L60.79,28.47c2.49-2.18,7.67-2.32,11.51-.31l66.25,34.67c3.84,2.01,4.94,5.43,2.44,7.61l-57.01,49.84c-2.49,2.18-7.67,2.32-11.51.31Z"/>
        <path class="cls-2" d="M72.48,119.63L6.44,85.07c-3.82-2-4.92-5.42-2.44-7.59L60.82,27.8c2.48-2.17,7.64-2.31,11.47-.31l66.04,34.56c3.82,2,4.92,5.42,2.44,7.59l-56.82,49.68c-2.48,2.17-7.64,2.31-11.47.31Z"/>
        <path class="cls-2" d="M72.47,118.66L6.65,84.21c-3.81-1.99-4.9-5.4-2.43-7.56L60.86,27.13c2.48-2.16,7.62-2.3,11.43-.31l65.83,34.45c3.81,1.99,4.9,5.4,2.43,7.56l-56.64,49.52c-2.48,2.17-7.62,2.3-11.43.31Z"/>
        <path class="cls-2" d="M72.47,117.69L6.86,83.35c-3.8-1.99-4.89-5.38-2.42-7.54L60.9,26.45c2.47-2.16,7.6-2.3,11.39-.31l65.61,34.34c3.8,1.99,4.89,5.38,2.42,7.54l-56.46,49.36c-2.47,2.16-7.6,2.3-11.39.31Z"/>
        <path class="cls-2" d="M72.47,116.72L7.07,82.49c-3.79-1.98-4.87-5.36-2.41-7.51L60.93,25.78c2.46-2.15,7.57-2.29,11.36-.31l65.4,34.23c3.79,1.98,4.87,5.36,2.41,7.51l-56.27,49.2c-2.46,2.15-7.57,2.29-11.36.31Z"/>
        <path class="cls-2" d="M72.47,115.75L7.28,81.64c-3.77-1.98-4.86-5.35-2.4-7.49L60.97,25.1c2.45-2.14,7.55-2.28,11.32-.31l65.19,34.12c3.77,1.98,4.86,5.35,2.4,7.49l-56.09,49.04c-2.45,2.14-7.55,2.28-11.32.31Z"/>
        <path class="cls-2" d="M72.47,114.78L7.49,80.78c-3.76-1.97-4.84-5.33-2.4-7.47L61,24.43c2.44-2.14,7.52-2.27,11.28-.31l64.98,34.01c3.76,1.97,4.84,5.33,2.4,7.47l-55.91,48.88c-2.44,2.14-7.52,2.27-11.28.31Z"/>
        <path class="cls-2" d="M72.46,113.81L7.7,79.92c-3.75-1.96-4.82-5.31-2.39-7.44L61.04,23.75c2.44-2.13,7.5-2.27,11.25-.3l64.76,33.89c3.75,1.96,4.82,5.31,2.39,7.44l-55.73,48.72c-2.44,2.13-7.5,2.27-11.25.3Z"/>
        <path class="cls-2" d="M72.46,112.84L7.91,79.06c-3.74-1.96-4.81-5.29-2.38-7.42L61.07,23.08c2.43-2.12,7.47-2.26,11.21-.3l64.55,33.78c3.74,1.96,4.81,5.29,2.38,7.42l-55.54,48.56c-2.43,2.12-7.47,2.26-11.21.3Z"/>
        <path class="cls-2" d="M72.46,111.87L8.12,78.2c-3.73-1.95-4.79-5.28-2.37-7.39L61.11,22.41c2.42-2.12,7.45-2.25,11.17-.3l64.34,33.67c3.73,1.95,4.79,5.28,2.37,7.39l-55.36,48.4c-2.42,2.12-7.45,2.25-11.17.3Z"/>
        <path class="cls-2" d="M72.46,110.91L8.33,77.34c-3.71-1.94-4.78-5.26-2.37-7.37L61.14,21.73c2.41-2.11,7.42-2.24,11.14-.3l64.13,33.56c3.71,1.94,4.78,5.26,2.37,7.37l-55.18,48.24c-2.41,2.11-7.42,2.24-11.14.3Z"/>
        <path class="cls-2" d="M72.46,109.94L8.54,76.49c-3.7-1.94-4.76-5.24-2.36-7.34L61.18,21.06c2.4-2.1,7.4-2.24,11.1-.3l63.92,33.45c3.7,1.94,4.76,5.24,2.36,7.34l-54.99,48.08c-2.4,2.1-7.4,2.24-11.1.3Z"/>
        <path class="cls-2" d="M72.45,108.97L8.75,75.63c-3.69-1.93-4.75-5.22-2.35-7.32L61.21,20.38c2.4-2.09,7.37-2.23,11.06-.3l63.7,33.34c3.69,1.93,4.75,5.22,2.35,7.32l-54.81,47.92c-2.4,2.1-7.37,2.23-11.06.3Z"/>
        <path class="cls-2" d="M72.45,108L8.96,74.77c-3.68-1.92-4.73-5.21-2.34-7.29L61.25,19.71c2.39-2.09,7.35-2.22,11.03-.3l63.49,33.23c3.68,1.92,4.73,5.21,2.34,7.29l-54.63,47.77c-2.39,2.09-7.35,2.22-11.03.3Z"/>
        <path class="cls-2" d="M72.45,107.03L9.17,73.91c-3.66-1.92-4.71-5.19-2.33-7.27L61.29,19.04c2.38-2.08,7.33-2.21,10.99-.3l63.28,33.12c3.66,1.92,4.71,5.19,2.33,7.27l-54.45,47.61c-2.38,2.08-7.33,2.21-10.99.3Z"/>
        <path class="cls-2" d="M72.45,106.06L9.38,73.05c-3.65-1.91-4.7-5.17-2.33-7.25L61.32,18.36c2.37-2.07,7.3-2.21,10.95-.3l63.07,33c3.65,1.91,4.7,5.17,2.33,7.25l-54.26,47.45c-2.37,2.07-7.3,2.21-10.95.3Z"/>
        <path class="cls-2" d="M72.45,105.09L9.59,72.19c-3.64-1.9-4.68-5.15-2.32-7.22L61.36,17.69c2.36-2.07,7.28-2.2,10.92-.3l62.85,32.89c3.64,1.9,4.68,5.15,2.32,7.22l-54.08,47.29c-2.36,2.07-7.28,2.2-10.92.3Z"/>
        <path class="cls-2" d="M72.44,104.12L9.8,71.34c-3.63-1.9-4.67-5.14-2.31-7.2L61.39,17.01c2.36-2.06,7.25-2.19,10.88-.29l62.64,32.78c3.63,1.9,4.67,5.14,2.31,7.2l-53.9,47.13c-2.36,2.06-7.25,2.19-10.88.29Z"/>
        <path class="cls-2" d="M72.44,103.15L10.02,70.48c-3.61-1.89-4.65-5.12-2.3-7.17L61.43,16.34c2.35-2.05,7.23-2.19,10.84-.29l62.43,32.67c3.61,1.89,4.65,5.12,2.3,7.17l-53.71,46.97c-2.35,2.05-7.23,2.19-10.84.29Z"/>
        <path class="cls-2" d="M72.44,102.18L10.23,69.62c-3.6-1.89-4.63-5.1-2.29-7.15L61.46,15.67c2.34-2.05,7.2-2.18,10.8-.29l62.22,32.56c3.6,1.89,4.63,5.1,2.29,7.15l-53.53,46.81c-2.34,2.05-7.2,2.18-10.8.29Z"/>
        <path class="cls-2" d="M72.44,101.21L10.44,68.76c-3.59-1.88-4.62-5.08-2.29-7.12L61.5,14.99c2.33-2.04,7.18-2.17,10.77-.29l62,32.45c3.59,1.88,4.62,5.08,2.29,7.12l-53.35,46.65c-2.33,2.04-7.18,2.17-10.77.29Z"/>
        <path class="cls-2" d="M72.44,100.24L10.65,67.9c-3.58-1.87-4.6-5.07-2.28-7.1L61.53,14.32c2.32-2.03,7.15-2.16,10.73-.29l61.79,32.34c3.58,1.87,4.6,5.07,2.28,7.1l-53.17,46.49c-2.32,2.03-7.15,2.16-10.73.29Z"/>
        <path class="cls-2" d="M72.44,99.27L10.86,67.04c-3.57-1.87-4.59-5.05-2.27-7.07L61.57,13.64c2.32-2.03,7.13-2.16,10.69-.29l61.58,32.23c3.57,1.87,4.59,5.05,2.27,7.07l-52.98,46.33c-2.32,2.03-7.13,2.16-10.69.29Z"/>
        <path class="cls-2" d="M72.43,98.3L11.07,66.19c-3.55-1.86-4.57-5.03-2.26-7.05L61.61,12.97c2.31-2.02,7.1-2.15,10.66-.29l61.37,32.12c3.55,1.86,4.57,5.03,2.26,7.05l-52.8,46.17c-2.31,2.02-7.1,2.15-10.66.29Z"/>
        <path class="cls-2" d="M72.43,97.33L11.28,65.33c-3.54-1.85-4.56-5.01-2.26-7.03L61.64,12.29c2.3-2.01,7.08-2.14,10.62-.29l61.15,32c3.54,1.85,4.56,5.01,2.26,7.03l-52.62,46.01c-2.3,2.01-7.08,2.14-10.62.29Z"/>
        <path class="cls-2" d="M72.43,96.36l-60.94-31.89c-3.53-1.85-4.54-5-2.25-7L61.68,11.62c2.29-2,7.05-2.13,10.58-.29l60.94,31.89c3.53,1.85,4.54,5,2.25,7l-52.44,45.85c-2.29,2-7.05,2.13-10.58.29Z"/>
        <path class="cls-2" d="M72.43,95.39L11.7,63.61c-3.52-1.84-4.52-4.98-2.24-6.98L61.71,10.95c2.28-2,7.03-2.13,10.55-.29l60.73,31.78c3.52,1.84,4.52,4.98,2.24,6.98l-52.25,45.69c-2.28,2-7.03,2.13-10.55.29Z"/>
        <path class="cls-2" d="M72.43,94.42L11.91,62.75c-3.5-1.83-4.51-4.96-2.23-6.95L61.75,10.27c2.28-1.99,7.01-2.12,10.51-.28l60.52,31.67c3.5,1.83,4.51,4.96,2.23,6.95l-52.07,45.53c-2.28,1.99-7.01,2.12-10.51.28Z"/>
        <path class="cls-2" d="M72.42,93.45L12.12,61.89c-3.49-1.83-4.49-4.95-2.22-6.93L61.78,9.6c2.27-1.98,6.98-2.11,10.47-.28l60.3,31.56c3.49,1.83,4.49,4.94,2.22,6.93l-51.89,45.37c-2.27,1.98-6.98,2.11-10.47.28Z"/>
        <path class="cls-2" d="M72.42,92.48L12.33,61.04c-3.48-1.82-4.48-4.93-2.22-6.9L61.82,8.92c2.26-1.98,6.96-2.1,10.44-.28l60.09,31.45c3.48,1.82,4.48,4.93,2.22,6.9l-51.7,45.21c-2.26,1.98-6.96,2.1-10.44.28Z"/>
        <path class="cls-2" d="M72.42,91.51L12.54,60.18c-3.47-1.81-4.46-4.91-2.21-6.88L61.85,8.25c2.25-1.97,6.93-2.1,10.4-.28l59.88,31.34c3.47,1.81,4.46,4.91,2.21,6.88l-51.52,45.05c-2.25,1.97-6.93,2.1-10.4.28Z"/>
        <path class="cls-2" d="M72.42,90.54L12.75,59.32c-3.45-1.81-4.45-4.89-2.2-6.86L61.89,7.58c2.24-1.96,6.91-2.09,10.36-.28l59.67,31.23c3.45,1.81,4.44,4.89,2.2,6.85l-51.34,44.89c-2.24,1.96-6.91,2.09-10.36.28Z"/>
        <path class="cls-2" d="M72.42,89.57L12.96,58.46c-3.44-1.8-4.43-4.88-2.19-6.83L61.92,6.9c2.24-1.96,6.88-2.08,10.32-.28l59.45,31.11c3.44,1.8,4.43,4.88,2.19,6.83l-51.16,44.73c-2.24,1.96-6.88,2.08-10.32.28Z"/>
        <path class="cls-2" d="M72.41,88.61L13.17,57.6c-3.43-1.8-4.41-4.86-2.18-6.81L61.96,6.23c2.23-1.95,6.86-2.07,10.29-.28l59.24,31c3.43,1.8,4.41,4.86,2.18,6.81l-50.97,44.57c-2.23,1.95-6.86,2.07-10.29.28Z"/>
        <path class="cls-2" d="M72.41,87.64L13.38,56.74c-3.42-1.79-4.4-4.84-2.18-6.78L62,5.55c2.22-1.94,6.83-2.07,10.25-.28l59.03,30.89c3.42,1.79,4.4,4.84,2.18,6.78l-50.79,44.41c-2.22,1.94-6.83,2.07-10.25.28Z"/>
        <path class="cls-2" d="M72.41,86.67L13.59,55.89c-3.41-1.78-4.38-4.82-2.17-6.76L62.03,4.88c2.21-1.93,6.81-2.06,10.21-.28l58.82,30.78c3.41,1.78,4.38,4.82,2.17,6.76l-50.61,44.25c-2.21,1.93-6.81,2.06-10.21.28Z"/>
        <path class="cls-2" d="M72.41,85.7L13.8,55.03c-3.39-1.78-4.37-4.81-2.16-6.73L62.07,4.2c2.2-1.93,6.78-2.05,10.18-.28l58.6,30.67c3.39,1.78,4.37,4.81,2.16,6.73l-50.42,44.09c-2.2,1.93-6.78,2.05-10.18.28Z"/>
        <path class="cls-2" d="M72.41,84.73L14.01,54.17c-3.38-1.77-4.35-4.79-2.15-6.71L62.1,3.53c2.2-1.92,6.76-2.04,10.14-.27l58.39,30.56c3.38,1.77,4.35,4.79,2.15,6.71l-50.24,43.93c-2.2,1.92-6.76,2.04-10.14.27Z"/>
        <path class="cls-2" d="M72.4,83.76L14.22,53.31c-3.37-1.76-4.33-4.77-2.15-6.68L62.14,2.86c2.19-1.91,6.73-2.04,10.1-.27l58.18,30.45c3.37,1.76,4.33,4.77,2.15,6.68l-50.06,43.77c-2.19,1.91-6.73,2.04-10.1.27Z"/>
        <path class="cls-2" d="M72.4,82.79L14.44,52.45c-3.36-1.76-4.32-4.75-2.14-6.66L62.17,2.18c2.18-1.91,6.71-2.03,10.07-.27l57.97,30.34c3.36,1.76,4.32,4.75,2.14,6.66l-49.88,43.61c-2.18,1.91-6.71,2.03-10.07.27Z"/>
        <path class="cls-2" d="M72.4,81.82L14.65,51.59c-3.34-1.75-4.3-4.74-2.13-6.64L62.21,1.51c2.17-1.9,6.69-2.02,10.03-.27l57.75,30.23c3.34,1.75,4.3,4.74,2.13,6.64l-49.69,43.45c-2.17,1.9-6.69,2.02-10.03.27Z"/>
      </g>
      <path class="cls-3" d="M72.4,81.82L14.65,51.59c-3.34-1.75-4.3-4.74-2.13-6.64L62.21,1.51c2.17-1.9,6.69-2.02,10.03-.27l57.75,30.23c3.34,1.75,4.3,4.74,2.13,6.64l-49.69,43.45c-2.17,1.9-6.69,2.02-10.03.27Z"/>
      <path class="cls-2" d="M22.78,49.74L64.25,13.48c1.81-1.59,5.58-1.69,8.37-.23l48.2,25.23c.77.4,1.37.88,1.83,1.4,1.38-1.59.52-3.85-2.1-5.22l-48.2-25.23c-2.79-1.46-6.56-1.36-8.37.23L22.51,45.92c-1.32,1.15-1.25,2.78-.05,4.14.1-.11.2-.22.32-.32Z"/>
      <path class="cls-1" d="M130.36,33.59l-49.69,43.45c-2.17,1.9-6.69,2.02-10.03.27L12.88,47.09c-.49-.26-.93-.54-1.31-.85-.72,1.78.43,3.94,3.08,5.33l57.75,30.23c3.34,1.75,7.86,1.63,10.03-.27l49.69-43.45c1.85-1.62,1.42-4.03-.82-5.79-.19.47-.5.91-.95,1.3Z"/>
    </g>
  </g>
</svg>