<?xml version="1.0" encoding="UTF-8"?>
<svg id="Layer_2" data-name="Layer 2" xmlns="http://www.w3.org/2000/svg" viewBox="0 0 581.09 245.73">
  <defs>
    <style>
      .cls-1 {
        fill: #f5f5f5;
      }

      .cls-1, .cls-2 {
        stroke-width: 0px;
      }

      .cls-2 {
        fill: #e4e4e4;
      }
    </style>
  </defs>
  <g id="cream_white">
    <g id="cream_white-2" data-name="cream_white">
      <path id="cream_white-3" data-name="cream_white" class="cls-1" d="M46.2,18.35C35.29,22.93,6.28,26.84,7.98,59.96c1.7,33.12-6.79,33.97-7.64,58.6s-2.14,36.52,24.83,74.74c29.52,65.4,73.69,70.49,97.47,7.64,23.78-62.85,57.75-69.64,98.52-13.59,27.28,25.68,31.42.85,57.75,15.29,26.33,14.44,25.48,36.97,78.13,42.69,52.66,5.72,69.64-52.88,69.64-59.68s20.38-56.9,52.66-15.29c37.13,39.68,84.08,7.49,84.08,7.49,22.93-27.02,16.99-101.76,16.99-108.56s1.7-31.48-31.42-46.71S131.13-17.32,46.2,18.35Z"/>
      <path class="cls-2" d="M30.26,80.09c0-19.97-16.39-54.48,10.87-29.96s116.24,13.62,105.34,22.7-47.55,11.8-60.09,13.62-40.69,4.54-40.69,19.98-23.39,37.23-20.32,11.8,4.89-38.13,4.89-38.13Z"/>
      <path class="cls-2" d="M64.33,183.59c24.95-.91,20.41-.91,34.93-17.25,14.53-16.34,37.23-31.78,37.23-31.78,0,0,32.71-10.9,10.91,6.36s-33.79,35.41-37.79,51.75-30.32,27.24-38.49,18.16c-8.17-9.08-22.27-10.9-14.53-19.07l7.74-8.17Z"/>
      <path class="cls-2" d="M354.87,90.07c-25,8.17-47.18,9.08-63.33,3.63s-132.36-23.61-24.32-15.43c49.94,12.71,106.23-2.08,106.23-2.08,19.07.27,18.58,5.28,0,9.58l-18.58,4.3Z"/>
      <path class="cls-2" d="M458.8,80.09c-18.72-8.32-32.69-.91-41.77,0s-24.51-5.45,17.25-10.9,73.67-8.17,98.97-13.62,38.13-33.59,36.32,0c-21.79,30.2-38.13,17.76-39.95,41.57s-13.62,38.33-29.05,17.45-17.25-23.61-41.77-34.5Z"/>
      <path class="cls-2" d="M506.92,147.27c18.88,7.45,25.42,1.82,35.41,0s39.69-.91,16.21,17.25-36.19,12.71-51.62,0-34.5-30.87,0-17.25Z"/>
      <path class="cls-2" d="M458.8,131.17c-15.43-9.32,3.63-8.46,17.25,4.3s.91,18.23-8.17,6.97l-9.08-11.27Z"/>
    </g>
  </g>
</svg>