<svg width="349" height="304" viewBox="0 0 349 304" fill="none" xmlns="http://www.w3.org/2000/svg">
<g clip-path="url(#clip0_65_84)">
<path d="M92.7601 285.25C74.7801 284.03 67.3501 294.67 41.5701 270.85C15.7901 247.03 -33.2199 183.03 33.7801 143.03C47.2801 77.5301 115.28 59.5301 133.28 64.5301C148.28 41.5301 196.28 -9.46989 210.28 1.53011C212.28 8.53011 205.28 1.53011 202.28 6.53011C199.28 11.5301 178.28 28.5301 219.28 65.5301C279.28 80.5301 275.28 86.5301 275.28 96.5301C275.28 106.53 272.28 108.53 278.28 111.53C284.28 114.53 316.28 143.53 315.28 152.53C325.28 160.53 325.28 153.53 328.28 167.53C331.28 181.53 330.28 186.53 331.28 188.53C341.28 195.53 357.28 224.53 343.28 231.53C341.28 252.53 322.28 275.53 309.28 268.53C300.28 286.53 283.28 284.53 240.28 273.53C216.28 296.53 183.28 313.53 163.28 296.53C137.28 300.53 92.7601 285.25 92.7601 285.25Z" fill="#E2DDD3"/>
<path d="M34.7799 143.03C18.9399 148.96 11.0199 165.86 8.2899 181.55C2.2999 215.77 18.7499 252.11 48.7899 269.82C58.4599 275.74 69.1099 279.98 80.0399 283C82.9499 283.75 86.2399 284.59 89.1699 285.25C72.2699 284.12 55.5299 279.46 41.0999 270.34C11.3099 252.28 -4.1001 214.48 3.7199 180.64C7.3699 164.43 17.3799 146.79 34.7799 143.03Z" fill="#ECE7DD"/>
<path d="M132.28 66.53C83.59 71.97 45.21 92.35 38.93 144.9C31.92 204.45 55.67 269.12 115.52 290.86C129.51 296.21 144.52 298.73 159.6 299.78C144.48 300.05 129.15 298.32 114.55 293.64C51.29 273.96 25.1 205.74 33.31 144.15C40.68 90.01 81.26 68 132.27 66.53H132.28Z" fill="#ECE7DD"/>
<path d="M110.28 95.53C75.9599 108.55 71.5199 142.09 79.4499 174.09C92.1899 223.88 127.83 270.62 169.88 299.79C120.26 273.21 77.1999 216.03 71.4699 159.23C68.8899 130.2 80.0799 103.2 110.28 95.53Z" fill="#ECE7DD"/>
<path d="M209.28 2.53003C176.31 19.67 148.17 45.11 128.28 76.53C139.35 42.24 174.24 10.7 209.28 2.53003Z" fill="#ECE7DD"/>
<path d="M191.28 34.53C200.85 44.81 211.34 54.16 221.51 63.83C238.5 79.5 256.21 96.71 273.57 111.8C274.09 112.22 274.59 112.63 275.13 112.99C278.62 114.76 281.48 116.83 284.41 118.95C292.99 125.27 301.29 132.08 308.17 140.26C310.34 143.01 312.71 146 313.3 149.54C312.07 146.24 309.44 143.78 306.96 141.4C301.84 136.69 296.19 132.57 290.48 128.6C285 124.89 279.5 121.08 273.6 118.1C273.37 118.02 272.57 117.61 272.25 117.42C272.17 117.37 271.56 116.95 271.46 116.89C257.68 106.45 245.38 94.27 232.98 82.28C223 72.33 213.24 62.16 204.09 51.42C199.57 46 195.02 40.56 191.3 34.55L191.28 34.53Z" fill="#ECE7DD"/>
<path d="M151.28 114.53C145.19 88.61 157.66 47.9 175.35 28.26C176.81 26.81 178.39 25.36 180.28 24.53C178.79 25.9 177.71 27.57 176.67 29.27C169.93 41.42 165.39 54.7 161.08 67.86C156.31 83.12 152.46 98.43 151.28 114.52V114.53Z" fill="#ECE7DD"/>
<path d="M187.69 24.53C172.28 57.53 165.49 155.53 221.39 161.03C221.29 142.53 207.9 100.15 199.1 89.34C190.3 78.53 187.7 24.53 187.7 24.53H187.69Z" fill="#ECE7DD"/>
<path d="M141.78 118.03C107.28 145.53 205.17 261.67 290.97 270.85C306.28 272.53 306.28 276.53 306.28 276.53C290.28 284.53 245.04 273.17 241.16 270.85C237.28 268.53 230.6 277.61 229.44 279.07C228.28 280.53 186.31 257.07 176.79 248.3C166.14 238.49 154.81 229.43 144.18 219.59C131.08 207.48 114.64 196.02 109.06 178.22C107.12 172.04 106.71 165.5 106.31 159.03C106.02 154.33 105.73 149.57 106.63 144.95C108.61 134.85 117.12 129.98 125.47 125.35C127.4 124.28 141.22 119.77 141.77 118.03H141.78Z" fill="#ECE7DD"/>
<path d="M151 129.63C169.16 155.33 198.1 175.34 224.29 192.08C252.37 210.03 282.9 224.45 315.25 232.76C322.35 234.58 329.53 236.11 336.76 237.32C336.43 243.56 335.22 249.86 332.23 255.34C329.24 260.82 324.32 265.44 318.31 267.14C309.61 269.6 300.51 265.76 292.29 262.02C276.24 254.7 260.19 247.38 244.14 240.06C228.43 232.89 212.48 225.58 199.38 214.33C186.26 203.06 176.61 188.38 167.14 173.9C161.91 165.9 156.63 157.81 153.34 148.83C151.01 142.48 149.71 135.75 149.51 128.98" fill="#ECE7DD"/>
<path d="M206.15 168.93C246.78 170.03 302.24 178.83 316.01 168.93C329.78 159.03 326.2 172.14 326.49 173.58C326.78 175.02 324.63 185.03 326.71 187.03C328.79 189.03 311.78 190.03 281.78 189.03C251.78 188.03 223.99 183.74 221.38 179.88C218.77 176.02 206.15 168.92 206.15 168.92V168.93Z" fill="#ECE7DD"/>
<path d="M272.78 108.03C272.41 105.12 273.56 102.19 273.79 99.37C275.13 90.89 268.89 87.82 261.86 85.52C250.16 81.45 238.75 76.56 228.45 69.54C239.93 71.75 250.86 75.33 261.81 79.16C269.43 81.65 278.35 86.03 277.76 95.43C277.51 100.23 274.39 103.78 272.78 108.03Z" fill="#ECE7DD"/>
<path d="M110.78 120.03C105.92 126.27 104.77 134.53 104.75 142.23C104.85 157.79 109.94 172.99 117.3 186.58C136.27 221.44 169.59 245.18 203.78 264.03C166.4 250.25 130.89 225.38 112.28 189.21C104.53 173.85 99.8401 156.32 102.18 139.06C103.29 132.2 105.5 124.81 110.78 120.03Z" fill="#DBD6CE"/>
<path d="M142.28 118.53C129.71 131.94 156.01 168.15 164.68 180.29C178.85 199.24 194.39 216.89 213.28 231.53C201.77 227.49 191.49 220.37 182.24 212.51C163.86 196.37 148.47 176.51 139.53 153.52C135.91 143.54 131.06 125.31 142.28 118.52V118.53Z" fill="#DBD6CE"/>
<path d="M185.78 165.03C212.94 180.65 239.51 198.78 267.51 212.87C284.31 221.27 301.74 229.41 320.61 231.53C277.79 232.11 219.52 190.28 185.78 165.03Z" fill="#DBD6CE"/>
<path d="M193.28 41.53C197.86 49.44 205.66 60.39 210.79 68.14C219.37 80.84 228.77 95.23 236.72 108.34C242.19 117.49 247.54 126.72 252.11 136.38C254.23 141.25 256.72 146.18 257.28 151.53C256.64 148.94 255.45 146.57 254.24 144.22C243.99 125.49 227.61 101.74 216.46 83.43C210.87 74.38 205.33 65.29 200.21 55.95C197.71 51.25 195.14 46.54 193.28 41.53Z" fill="#DBD6CE"/>
</g>
<defs>
<clipPath id="clip0_65_84">
<rect width="348.78" height="303.43" fill="white"/>
</clipPath>
</defs>
</svg>
